<svg width="281" height="210" viewBox="0 0 281 210" fill="none" xmlns="http://www.w3.org/2000/svg">
<circle cx="131" cy="39" r="39" fill="white"/>
<circle cx="131" cy="39" r="39" fill="#7B61FF"/>
<circle cx="131" cy="39" r="39" fill="url(#paint0_linear_846_15789)"/>
<g opacity="0.2" clip-path="url(#clip0_846_15789)">
<path d="M67 25C61.48 25 57 29.48 57 35C57 40.52 61.48 45 67 45C72.52 45 77 40.52 77 35C77 29.48 72.52 25 67 25ZM68 28.3L69.35 27.35C71.17 27.91 72.72 29.11 73.73 30.69L73.34 32.03L71.99 32.49L68 29.7V28.3ZM64.65 27.35L66 28.3V29.7L62.01 32.49L60.66 32.03L60.27 30.69C61.28 29.12 62.83 27.92 64.65 27.35ZM62.08 40.11L60.94 40.21C59.73 38.81 59 36.99 59 35C59 34.88 59.01 34.77 59.02 34.65L60.02 33.92L61.4 34.4L62.86 38.74L62.08 40.11ZM69.5 42.59C68.71 42.85 67.87 43 67 43C66.13 43 65.29 42.85 64.5 42.59L63.81 41.1L64.45 40H69.56L70.2 41.11L69.5 42.59ZM69.27 38H64.73L63.38 33.98L67 31.44L70.63 33.98L69.27 38ZM73.06 40.21L71.92 40.11L71.13 38.74L72.59 34.4L73.98 33.93L74.98 34.66C74.99 34.77 75 34.88 75 35C75 36.99 74.27 38.81 73.06 40.21Z" fill="white"/>
</g>
<circle cx="203" cy="111" r="39" fill="#00E3EF" fill-opacity="0.8"/>
<circle cx="203" cy="111" r="39" fill="url(#paint1_linear_846_15789)" fill-opacity="0.9"/>
<circle cx="99" cy="135" r="39" fill="#0088EF"/>
<circle cx="99" cy="135" r="39" fill="url(#paint2_linear_846_15789)"/>
<g opacity="0.2" clip-path="url(#clip1_846_15789)">
<path d="M200.52 27.49C198.18 25.15 193.9 25.62 190.97 28.55C189.37 30.15 188.45 32.42 188.43 34.01C188.41 35.59 188.69 37.9 187.08 39.51L182.84 43.75L184.26 45.17L188.5 40.93C190.11 39.32 192.42 39.6 194 39.58C195.58 39.56 197.86 38.64 199.46 37.04C202.38 34.11 202.86 29.83 200.52 27.49ZM191.32 36.68C189.79 35.15 190.27 32.07 192.38 29.96C194.49 27.85 197.56 27.37 199.1 28.9C200.63 30.43 200.15 33.51 198.04 35.62C195.93 37.73 192.86 38.21 191.32 36.68Z" fill="white"/>
<path d="M199 42C199.53 42 200.04 42.21 200.41 42.59C201.19 43.37 201.19 44.64 200.41 45.42C200.04 45.79 199.53 46 199 46C198.47 46 197.96 45.79 197.59 45.41C196.81 44.63 196.81 43.36 197.59 42.58C197.96 42.21 198.47 42 199 42ZM199 40C197.98 40 196.95 40.39 196.17 41.17C194.61 42.73 194.61 45.26 196.17 46.83C196.95 47.61 197.98 48 199 48C200.02 48 201.05 47.61 201.83 46.83C203.39 45.27 203.39 42.74 201.83 41.17C201.05 40.39 200.02 40 199 40Z" fill="white"/>
</g>
<g opacity="0.2" clip-path="url(#clip2_846_15789)">
<path d="M133 188C127.48 188 123 192.48 123 198C123 203.52 127.48 208 133 208C138.52 208 143 203.52 143 198C143 192.48 138.52 188 133 188ZM126.23 193.75C127.1 194.62 127.7 195.74 127.91 197H125.07C125.22 195.82 125.63 194.72 126.23 193.75ZM125.07 199H127.91C127.7 200.26 127.1 201.38 126.23 202.25C125.63 201.28 125.22 200.18 125.07 199ZM132 205.93C130.27 205.71 128.71 204.93 127.51 203.79C128.81 202.55 129.7 200.88 129.93 199H132V205.93ZM132 197H129.93C129.69 195.12 128.81 193.44 127.5 192.2C128.71 191.06 130.27 190.29 132 190.07V197ZM140.93 197H138.09C138.3 195.74 138.9 194.62 139.77 193.75C140.37 194.72 140.78 195.82 140.93 197ZM134 190.07C135.73 190.29 137.29 191.06 138.5 192.2C137.19 193.44 136.31 195.12 136.07 197H134V190.07ZM134 205.93V199H136.07C136.31 200.88 137.19 202.55 138.49 203.79C137.29 204.93 135.73 205.71 134 205.93ZM139.77 202.25C138.9 201.39 138.31 200.26 138.09 199H140.93C140.78 200.18 140.37 201.28 139.77 202.25Z" fill="white"/>
</g>
<path d="M19.9544 102H33.0104V78.576H47.5544L58.9304 102H73.7144L61.2344 76.368C65.1704 74.576 68.0664 71.872 69.9224 68.256C71.8104 64.608 72.7544 60.432 72.7544 55.728C72.7544 49.904 71.3304 44.944 68.4824 40.848C65.6344 36.752 61.1064 34.224 54.8984 33.264C54.0024 33.104 52.9784 33.008 51.8264 32.976C50.7064 32.912 49.8104 32.88 49.1384 32.88H19.9544V102ZM33.0104 66.384V45.072H48.5624C49.2344 45.072 49.9704 45.104 50.7704 45.168C51.5704 45.232 52.3064 45.36 52.9784 45.552C54.7384 46.032 56.0984 46.848 57.0584 48C58.0184 49.12 58.6744 50.384 59.0264 51.792C59.4104 53.168 59.6024 54.48 59.6024 55.728C59.6024 56.976 59.4104 58.304 59.0264 59.712C58.6744 61.088 58.0184 62.352 57.0584 63.504C56.0984 64.624 54.7384 65.424 52.9784 65.904C52.3064 66.096 51.5704 66.224 50.7704 66.288C49.9704 66.352 49.2344 66.384 48.5624 66.384H33.0104ZM113.931 103.44C120.843 103.44 126.795 101.936 131.787 98.928C136.811 95.92 140.667 91.712 143.355 86.304C146.075 80.896 147.435 74.608 147.435 67.44C147.435 60.272 146.075 53.984 143.355 48.576C140.667 43.168 136.811 38.96 131.787 35.952C126.795 32.944 120.843 31.44 113.931 31.44C107.019 31.44 101.051 32.944 96.0269 35.952C91.0349 38.96 87.1789 43.168 84.4589 48.576C81.7709 53.984 80.4269 60.272 80.4269 67.44C80.4269 74.608 81.7709 80.896 84.4589 86.304C87.1789 91.712 91.0349 95.92 96.0269 98.928C101.051 101.936 107.019 103.44 113.931 103.44ZM113.931 91.152C107.371 91.056 102.443 88.88 99.1469 84.624C95.8829 80.368 94.2509 74.64 94.2509 67.44C94.2509 60.24 95.8829 54.464 99.1469 50.112C102.443 45.76 107.371 43.632 113.931 43.728C120.523 43.824 125.451 46 128.715 50.256C131.979 54.512 133.611 60.24 133.611 67.44C133.611 74.64 131.979 80.416 128.715 84.768C125.451 89.12 120.523 91.248 113.931 91.152ZM157.977 102H200.793V89.808H171.033V32.88H157.977V102ZM204.154 102H217.594L221.962 87.6H247.978L252.442 102H265.882L244.762 32.88H225.274L204.154 102ZM225.658 75.408L234.874 45.12L244.234 75.408H225.658Z" fill="white"/>
<path d="M19.9544 124.431H18.9544V125.431H19.9544V124.431ZM33.0104 124.431V125.431H34.0104V124.431H33.0104ZM33.0104 101.007V100.007H32.0104V101.007H33.0104ZM47.5544 101.007L48.4539 100.57L48.1804 100.007H47.5544V101.007ZM58.9304 124.431L58.0308 124.868L58.3043 125.431H58.9304V124.431ZM73.7144 124.431V125.431H75.3135L74.6135 123.993L73.7144 124.431ZM61.2344 98.7987L60.82 97.8885L59.8861 98.3138L60.3353 99.2364L61.2344 98.7987ZM69.9224 90.6867L69.0343 90.227L69.0327 90.23L69.9224 90.6867ZM54.8984 55.6947L54.7226 56.6791L54.734 56.6811L54.7456 56.6829L54.8984 55.6947ZM51.8264 55.4067L51.7693 56.405L51.784 56.4059L51.7986 56.4063L51.8264 55.4067ZM19.9544 55.3107V54.3107H18.9544V55.3107H19.9544ZM33.0104 88.8147H32.0104V89.8147H33.0104V88.8147ZM33.0104 67.5027V66.5027H32.0104V67.5027H33.0104ZM50.7704 67.5987L50.6906 68.5955H50.6906L50.7704 67.5987ZM52.9784 67.9827L52.7036 68.9443L52.7153 68.9474L52.9784 67.9827ZM57.0584 70.4307L56.2901 71.0709L56.2991 71.0815L57.0584 70.4307ZM59.0264 74.2227L58.0562 74.4652L58.0595 74.4784L58.0632 74.4915L59.0264 74.2227ZM59.0264 82.1427L58.0616 81.8795L58.0595 81.8872L58.0576 81.8948L59.0264 82.1427ZM57.0584 85.9347L57.8177 86.5855L57.8266 86.5748L57.0584 85.9347ZM52.9784 88.3347L52.7152 87.3698L52.7037 87.3731L52.9784 88.3347ZM50.7704 88.7187L50.8501 89.7155H50.8501L50.7704 88.7187ZM19.9544 125.431H33.0104V123.431H19.9544V125.431ZM34.0104 124.431V101.007H32.0104V124.431H34.0104ZM33.0104 102.007H47.5544V100.007H33.0104V102.007ZM46.6548 101.444L58.0308 124.868L59.8299 123.994L48.4539 100.57L46.6548 101.444ZM58.9304 125.431H73.7144V123.431H58.9304V125.431ZM74.6135 123.993L62.1335 98.3609L60.3353 99.2364L72.8153 124.868L74.6135 123.993ZM61.6487 99.7088C65.7756 97.8299 68.8463 94.973 70.812 91.1433L69.0327 90.23C67.2864 93.6323 64.5651 96.1835 60.82 97.8885L61.6487 99.7088ZM70.8105 91.1463C72.782 87.3368 73.7544 82.9992 73.7544 78.1587H71.7544C71.7544 82.7261 70.8387 86.7405 69.0343 90.227L70.8105 91.1463ZM73.7544 78.1587C73.7544 72.1657 72.2865 66.9981 69.3034 62.7078L67.6613 63.8495C70.3743 67.7513 71.7544 72.5036 71.7544 78.1587H73.7544ZM69.3034 62.7078C66.2608 58.3319 61.4552 55.6967 55.0512 54.7064L54.7456 56.6829C60.7575 57.6126 65.0079 60.0334 67.6613 63.8495L69.3034 62.7078ZM55.0742 54.7102C54.1184 54.5396 53.0434 54.4401 51.8541 54.407L51.7986 56.4063C52.9134 56.4372 53.8863 56.5298 54.7226 56.6791L55.0742 54.7102ZM51.8834 54.4083C50.7552 54.3438 49.8378 54.3107 49.1384 54.3107V56.3107C49.783 56.3107 50.6576 56.3415 51.7693 56.405L51.8834 54.4083ZM49.1384 54.3107H19.9544V56.3107H49.1384V54.3107ZM18.9544 55.3107V124.431H20.9544V55.3107H18.9544ZM34.0104 88.8147V67.5027H32.0104V88.8147H34.0104ZM33.0104 68.5027H48.5624V66.5027H33.0104V68.5027ZM48.5624 68.5027C49.2033 68.5027 49.9122 68.5332 50.6906 68.5955L50.8501 66.6018C50.0285 66.5361 49.2655 66.5027 48.5624 66.5027V68.5027ZM50.6906 68.5955C51.4341 68.655 52.1039 68.7728 52.7037 68.9442L53.2531 67.0211C52.5089 66.8085 51.7066 66.6704 50.8501 66.6018L50.6906 68.5955ZM52.7153 68.9474C54.3211 69.3854 55.4875 70.1076 56.2902 71.0709L57.8266 69.7905C56.7093 68.4497 55.1557 67.5399 53.2415 67.0179L52.7153 68.9474ZM56.2991 71.0815C57.1598 72.0856 57.7425 73.2104 58.0562 74.4652L59.9965 73.9801C59.6062 72.419 58.8769 71.0157 57.8176 69.7799L56.2991 71.0815ZM58.0632 74.4915C58.4262 75.7923 58.6024 77.0135 58.6024 78.1587H60.6024C60.6024 76.8078 60.3945 75.405 59.9896 73.9539L58.0632 74.4915ZM58.6024 78.1587C58.6024 79.3043 58.4261 80.5432 58.0616 81.8795L59.9911 82.4058C60.3947 80.9261 60.6024 79.5091 60.6024 78.1587H58.6024ZM58.0576 81.8948C57.7445 83.1187 57.1604 84.2502 56.2902 85.2945L57.8266 86.5748C58.8764 85.3151 59.6043 83.9186 59.9952 82.3905L58.0576 81.8948ZM56.2991 85.2839C55.4973 86.2193 54.3282 86.93 52.7153 87.3699L53.2415 89.2994C55.1485 88.7793 56.6995 87.89 57.8176 86.5855L56.2991 85.2839ZM52.7037 87.3731C52.1039 87.5445 51.4341 87.6624 50.6906 87.7218L50.8501 89.7155C51.7066 89.647 52.5089 89.5088 53.2531 89.2962L52.7037 87.3731ZM50.6906 87.7218C49.9123 87.7841 49.2033 87.8147 48.5624 87.8147V89.8147C49.2655 89.8147 50.0285 89.7812 50.8501 89.7155L50.6906 87.7218ZM48.5624 87.8147H33.0104V89.8147H48.5624V87.8147ZM131.787 121.359L131.273 120.501L131.271 120.502L131.787 121.359ZM143.355 108.735L142.462 108.285L142.459 108.29L143.355 108.735ZM143.355 71.0067L142.459 71.4518L142.462 71.456L143.355 71.0067ZM131.787 58.3827L131.271 59.2392L131.273 59.2406L131.787 58.3827ZM96.0269 58.3827L95.5132 57.5247L95.5108 57.5261L96.0269 58.3827ZM84.4589 71.0067L83.5655 70.5573L83.5634 70.5616L84.4589 71.0067ZM84.4589 108.735L83.5634 109.18L83.5655 109.184L84.4589 108.735ZM96.0269 121.359L95.5108 122.215L95.5132 122.217L96.0269 121.359ZM113.931 113.583L113.916 114.583H113.916L113.931 113.583ZM99.1469 107.055L98.3534 107.663L98.3562 107.667L99.1469 107.055ZM99.1469 72.5427L98.3497 71.9389L98.3469 71.9427L99.1469 72.5427ZM113.931 66.1587L113.916 67.1586L113.916 67.1586L113.931 66.1587ZM128.715 72.6867L129.508 72.0781V72.0781L128.715 72.6867ZM128.715 107.199L129.515 107.799L128.715 107.199ZM113.931 126.871C120.991 126.871 127.128 125.333 132.303 122.215L131.271 120.502C126.461 123.4 120.695 124.871 113.931 124.871V126.871ZM132.301 122.217C137.494 119.107 141.48 114.753 144.25 109.18L142.459 108.29C139.854 113.532 136.128 117.594 131.273 120.501L132.301 122.217ZM144.248 109.184C147.05 103.613 148.435 97.1661 148.435 89.8707H146.435C146.435 96.9112 145.1 103.04 142.462 108.285L144.248 109.184ZM148.435 89.8707C148.435 82.5752 147.05 76.1282 144.248 70.5573L142.462 71.456C145.1 76.7011 146.435 82.8301 146.435 89.8707H148.435ZM144.25 70.5616C141.48 64.9879 137.494 60.6342 132.301 57.5247L131.273 59.2406C136.128 62.1472 139.854 66.2094 142.459 71.4518L144.25 70.5616ZM132.303 57.5261C127.128 54.4081 120.991 52.8707 113.931 52.8707V54.8707C120.695 54.8707 126.461 56.3412 131.271 59.2392L132.303 57.5261ZM113.931 52.8707C106.871 52.8707 100.718 54.4082 95.5132 57.5247L96.5406 59.2406C101.383 56.3412 107.167 54.8707 113.931 54.8707V52.8707ZM95.5108 57.5261C90.3507 60.6354 86.3669 64.9876 83.5655 70.5573L85.3522 71.456C87.9909 66.2097 91.7191 62.1459 96.543 59.2392L95.5108 57.5261ZM83.5634 70.5616C80.7949 76.1314 79.4269 82.5769 79.4269 89.8707H81.4269C81.4269 82.8284 82.7468 76.6979 85.3544 71.4518L83.5634 70.5616ZM79.4269 89.8707C79.4269 97.1645 80.7949 103.61 83.5634 109.18L85.3544 108.29C82.7468 103.043 81.4269 96.9129 81.4269 89.8707H79.4269ZM83.5655 109.184C86.3669 114.754 90.3507 119.106 95.5108 122.215L96.543 120.502C91.7191 117.595 87.9909 113.532 85.3522 108.285L83.5655 109.184ZM95.5132 122.217C100.718 125.333 106.871 126.871 113.931 126.871V124.871C107.167 124.871 101.383 123.4 96.5406 120.501L95.5132 122.217ZM113.946 112.583C107.616 112.49 103.006 110.405 99.9375 106.442L98.3562 107.667C101.879 112.216 107.126 114.483 113.916 114.583L113.946 112.583ZM99.9404 106.446C96.8496 102.416 95.2509 96.9255 95.2509 89.8707H93.2509C93.2509 97.2159 94.9161 103.181 98.3534 107.663L99.9404 106.446ZM95.2509 89.8707C95.2509 82.8173 96.8491 77.2731 99.9469 73.1427L98.3469 71.9427C94.9167 76.5163 93.2509 82.524 93.2509 89.8707H95.2509ZM99.9441 73.1464C103.008 69.1008 107.602 67.0662 113.916 67.1586L113.946 65.1588C107.14 65.0592 101.878 67.2805 98.3497 71.9389L99.9441 73.1464ZM113.916 67.1586C120.28 67.2512 124.886 69.3374 127.921 73.2952L129.508 72.0781C126.016 67.5239 120.766 65.2581 113.945 65.1588L113.916 67.1586ZM127.921 73.2952C131.012 77.3253 132.611 82.8159 132.611 89.8707H134.611C134.611 82.5255 132.946 76.56 129.508 72.0781L127.921 73.2952ZM132.611 89.8707C132.611 96.924 131.013 102.468 127.915 106.599L129.515 107.799C132.945 103.225 134.611 97.2173 134.611 89.8707H132.611ZM127.915 106.599C124.884 110.639 120.294 112.675 113.945 112.583L113.916 114.583C120.752 114.682 126.017 112.462 129.515 107.799L127.915 106.599ZM157.977 124.431H156.977V125.431H157.977V124.431ZM200.793 124.431V125.431H201.793V124.431H200.793ZM200.793 112.239H201.793V111.239H200.793V112.239ZM171.033 112.239H170.033V113.239H171.033V112.239ZM171.033 55.3107H172.033V54.3107H171.033V55.3107ZM157.977 55.3107V54.3107H156.977V55.3107H157.977ZM157.977 125.431H200.793V123.431H157.977V125.431ZM201.793 124.431V112.239H199.793V124.431H201.793ZM200.793 111.239H171.033V113.239H200.793V111.239ZM172.033 112.239V55.3107H170.033V112.239H172.033ZM171.033 54.3107H157.977V56.3107H171.033V54.3107ZM156.977 55.3107V124.431H158.977V55.3107H156.977ZM204.154 124.431L203.198 124.138L202.803 125.431H204.154V124.431ZM217.594 124.431V125.431H218.336L218.551 124.721L217.594 124.431ZM221.962 110.031V109.031H221.221L221.005 109.74L221.962 110.031ZM247.978 110.031L248.934 109.735L248.715 109.031H247.978V110.031ZM252.442 124.431L251.487 124.727L251.705 125.431H252.442V124.431ZM265.882 124.431V125.431H267.234L266.839 124.138L265.882 124.431ZM244.762 55.3107L245.719 55.0184L245.502 54.3107H244.762V55.3107ZM225.274 55.3107V54.3107H224.534L224.318 55.0184L225.274 55.3107ZM225.658 97.8387L224.702 97.5476L224.309 98.8387H225.658V97.8387ZM234.874 67.5507L235.83 67.2554L234.867 64.1398L233.918 67.2596L234.874 67.5507ZM244.234 97.8387V98.8387H245.59L245.19 97.5434L244.234 97.8387ZM204.154 125.431H217.594V123.431H204.154V125.431ZM218.551 124.721L222.919 110.321L221.005 109.74L216.637 124.14L218.551 124.721ZM221.962 111.031H247.978V109.031H221.962V111.031ZM247.023 110.327L251.487 124.727L253.398 124.135L248.934 109.735L247.023 110.327ZM252.442 125.431H265.882V123.431H252.442V125.431ZM266.839 124.138L245.719 55.0184L243.806 55.6029L264.926 124.723L266.839 124.138ZM244.762 54.3107H225.274V56.3107H244.762V54.3107ZM224.318 55.0184L203.198 124.138L205.111 124.723L226.231 55.6029L224.318 55.0184ZM226.615 98.1298L235.831 67.8418L233.918 67.2596L224.702 97.5476L226.615 98.1298ZM233.919 67.8459L243.279 98.1339L245.19 97.5434L235.83 67.2554L233.919 67.8459ZM244.234 96.8387H225.658V98.8387H244.234V96.8387Z" fill="white"/>
<path opacity="0.5" d="M19.9544 140.431H18.9544V141.431H19.9544V140.431ZM33.0104 140.431V141.431H34.0104V140.431H33.0104ZM33.0104 117.007V116.007H32.0104V117.007H33.0104ZM47.5544 117.007L48.4539 116.57L48.1804 116.007H47.5544V117.007ZM58.9304 140.431L58.0308 140.868L58.3043 141.431H58.9304V140.431ZM73.7144 140.431V141.431H75.3135L74.6135 139.993L73.7144 140.431ZM61.2344 114.799L60.82 113.889L59.8861 114.314L60.3353 115.236L61.2344 114.799ZM69.9224 106.687L69.0343 106.227L69.0327 106.23L69.9224 106.687ZM54.8984 71.6947L54.7226 72.6791L54.734 72.6811L54.7456 72.6829L54.8984 71.6947ZM51.8264 71.4067L51.7693 72.405L51.784 72.4059L51.7986 72.4063L51.8264 71.4067ZM19.9544 71.3107V70.3107H18.9544V71.3107H19.9544ZM33.0104 104.815H32.0104V105.815H33.0104V104.815ZM33.0104 83.5027V82.5027H32.0104V83.5027H33.0104ZM50.7704 83.5987L50.6906 84.5955H50.6906L50.7704 83.5987ZM52.9784 83.9827L52.7036 84.9443L52.7153 84.9474L52.9784 83.9827ZM57.0584 86.4307L56.2901 87.0709L56.2991 87.0815L57.0584 86.4307ZM59.0264 90.2227L58.0562 90.4652L58.0595 90.4784L58.0632 90.4915L59.0264 90.2227ZM59.0264 98.1427L58.0616 97.8795L58.0595 97.8872L58.0576 97.8948L59.0264 98.1427ZM57.0584 101.935L57.8177 102.586L57.8266 102.575L57.0584 101.935ZM52.9784 104.335L52.7152 103.37L52.7037 103.373L52.9784 104.335ZM50.7704 104.719L50.8501 105.715H50.8501L50.7704 104.719ZM19.9544 141.431H33.0104V139.431H19.9544V141.431ZM34.0104 140.431V117.007H32.0104V140.431H34.0104ZM33.0104 118.007H47.5544V116.007H33.0104V118.007ZM46.6548 117.444L58.0308 140.868L59.8299 139.994L48.4539 116.57L46.6548 117.444ZM58.9304 141.431H73.7144V139.431H58.9304V141.431ZM74.6135 139.993L62.1335 114.361L60.3353 115.236L72.8153 140.868L74.6135 139.993ZM61.6487 115.709C65.7756 113.83 68.8463 110.973 70.812 107.143L69.0327 106.23C67.2864 109.632 64.5651 112.183 60.82 113.889L61.6487 115.709ZM70.8105 107.146C72.782 103.337 73.7544 98.9992 73.7544 94.1587H71.7544C71.7544 98.7261 70.8387 102.74 69.0343 106.227L70.8105 107.146ZM73.7544 94.1587C73.7544 88.1657 72.2865 82.9981 69.3034 78.7078L67.6613 79.8495C70.3743 83.7513 71.7544 88.5036 71.7544 94.1587H73.7544ZM69.3034 78.7078C66.2608 74.3319 61.4552 71.6967 55.0512 70.7064L54.7456 72.6829C60.7575 73.6126 65.0079 76.0334 67.6613 79.8495L69.3034 78.7078ZM55.0742 70.7102C54.1184 70.5396 53.0434 70.4401 51.8541 70.407L51.7986 72.4063C52.9134 72.4372 53.8863 72.5298 54.7226 72.6791L55.0742 70.7102ZM51.8834 70.4083C50.7552 70.3438 49.8378 70.3107 49.1384 70.3107V72.3107C49.783 72.3107 50.6576 72.3415 51.7693 72.405L51.8834 70.4083ZM49.1384 70.3107H19.9544V72.3107H49.1384V70.3107ZM18.9544 71.3107V140.431H20.9544V71.3107H18.9544ZM34.0104 104.815V83.5027H32.0104V104.815H34.0104ZM33.0104 84.5027H48.5624V82.5027H33.0104V84.5027ZM48.5624 84.5027C49.2033 84.5027 49.9122 84.5332 50.6906 84.5955L50.8501 82.6018C50.0285 82.5361 49.2655 82.5027 48.5624 82.5027V84.5027ZM50.6906 84.5955C51.4341 84.655 52.1039 84.7728 52.7037 84.9442L53.2531 83.0211C52.5089 82.8085 51.7066 82.6704 50.8501 82.6018L50.6906 84.5955ZM52.7153 84.9474C54.3211 85.3854 55.4875 86.1076 56.2902 87.0709L57.8266 85.7905C56.7093 84.4497 55.1557 83.5399 53.2415 83.0179L52.7153 84.9474ZM56.2991 87.0815C57.1598 88.0856 57.7425 89.2104 58.0562 90.4652L59.9965 89.9801C59.6062 88.419 58.8769 87.0157 57.8176 85.7799L56.2991 87.0815ZM58.0632 90.4915C58.4262 91.7923 58.6024 93.0135 58.6024 94.1587H60.6024C60.6024 92.8078 60.3945 91.405 59.9896 89.9539L58.0632 90.4915ZM58.6024 94.1587C58.6024 95.3043 58.4261 96.5432 58.0616 97.8795L59.9911 98.4058C60.3947 96.9261 60.6024 95.5091 60.6024 94.1587H58.6024ZM58.0576 97.8948C57.7445 99.1187 57.1604 100.25 56.2902 101.294L57.8266 102.575C58.8764 101.315 59.6043 99.9186 59.9952 98.3905L58.0576 97.8948ZM56.2991 101.284C55.4973 102.219 54.3282 102.93 52.7153 103.37L53.2415 105.299C55.1485 104.779 56.6995 103.89 57.8176 102.585L56.2991 101.284ZM52.7037 103.373C52.1039 103.545 51.4341 103.662 50.6906 103.722L50.8501 105.715C51.7066 105.647 52.5089 105.509 53.2531 105.296L52.7037 103.373ZM50.6906 103.722C49.9123 103.784 49.2033 103.815 48.5624 103.815V105.815C49.2655 105.815 50.0285 105.781 50.8501 105.715L50.6906 103.722ZM48.5624 103.815H33.0104V105.815H48.5624V103.815ZM131.787 137.359L131.273 136.501L131.271 136.502L131.787 137.359ZM143.355 124.735L142.462 124.285L142.459 124.29L143.355 124.735ZM143.355 87.0067L142.459 87.4518L142.462 87.456L143.355 87.0067ZM131.787 74.3827L131.271 75.2392L131.273 75.2406L131.787 74.3827ZM96.0269 74.3827L95.5132 73.5247L95.5108 73.5261L96.0269 74.3827ZM84.4589 87.0067L83.5655 86.5573L83.5634 86.5616L84.4589 87.0067ZM84.4589 124.735L83.5634 125.18L83.5655 125.184L84.4589 124.735ZM96.0269 137.359L95.5108 138.215L95.5132 138.217L96.0269 137.359ZM113.931 129.583L113.916 130.583H113.916L113.931 129.583ZM99.1469 123.055L98.3534 123.663L98.3562 123.667L99.1469 123.055ZM99.1469 88.5427L98.3497 87.9389L98.3469 87.9427L99.1469 88.5427ZM113.931 82.1587L113.916 83.1586L113.916 83.1586L113.931 82.1587ZM128.715 88.6867L129.508 88.0781V88.0781L128.715 88.6867ZM128.715 123.199L129.515 123.799L128.715 123.199ZM113.931 142.871C120.991 142.871 127.128 141.333 132.303 138.215L131.271 136.502C126.461 139.4 120.695 140.871 113.931 140.871V142.871ZM132.301 138.217C137.494 135.107 141.48 130.753 144.25 125.18L142.459 124.29C139.854 129.532 136.128 133.594 131.273 136.501L132.301 138.217ZM144.248 125.184C147.05 119.613 148.435 113.166 148.435 105.871H146.435C146.435 112.911 145.1 119.04 142.462 124.285L144.248 125.184ZM148.435 105.871C148.435 98.5752 147.05 92.1282 144.248 86.5573L142.462 87.456C145.1 92.7011 146.435 98.8301 146.435 105.871H148.435ZM144.25 86.5616C141.48 80.9879 137.494 76.6342 132.301 73.5247L131.273 75.2406C136.128 78.1472 139.854 82.2094 142.459 87.4518L144.25 86.5616ZM132.303 73.5261C127.128 70.4081 120.991 68.8707 113.931 68.8707V70.8707C120.695 70.8707 126.461 72.3412 131.271 75.2392L132.303 73.5261ZM113.931 68.8707C106.871 68.8707 100.718 70.4082 95.5132 73.5247L96.5406 75.2406C101.383 72.3412 107.167 70.8707 113.931 70.8707V68.8707ZM95.5108 73.5261C90.3507 76.6354 86.3669 80.9876 83.5655 86.5573L85.3522 87.456C87.9909 82.2097 91.7191 78.1459 96.543 75.2392L95.5108 73.5261ZM83.5634 86.5616C80.7949 92.1314 79.4269 98.5769 79.4269 105.871H81.4269C81.4269 98.8284 82.7468 92.6979 85.3544 87.4518L83.5634 86.5616ZM79.4269 105.871C79.4269 113.164 80.7949 119.61 83.5634 125.18L85.3544 124.29C82.7468 119.043 81.4269 112.913 81.4269 105.871H79.4269ZM83.5655 125.184C86.3669 130.754 90.3507 135.106 95.5108 138.215L96.543 136.502C91.7191 133.595 87.9909 129.532 85.3522 124.285L83.5655 125.184ZM95.5132 138.217C100.718 141.333 106.871 142.871 113.931 142.871V140.871C107.167 140.871 101.383 139.4 96.5406 136.501L95.5132 138.217ZM113.946 128.583C107.616 128.49 103.006 126.405 99.9375 122.442L98.3562 123.667C101.879 128.216 107.126 130.483 113.916 130.583L113.946 128.583ZM99.9404 122.446C96.8496 118.416 95.2509 112.925 95.2509 105.871H93.2509C93.2509 113.216 94.9161 119.181 98.3534 123.663L99.9404 122.446ZM95.2509 105.871C95.2509 98.8173 96.8491 93.2731 99.9469 89.1427L98.3469 87.9427C94.9167 92.5163 93.2509 98.524 93.2509 105.871H95.2509ZM99.9441 89.1464C103.008 85.1008 107.602 83.0662 113.916 83.1586L113.946 81.1588C107.14 81.0592 101.878 83.2805 98.3497 87.9389L99.9441 89.1464ZM113.916 83.1586C120.28 83.2512 124.886 85.3374 127.921 89.2952L129.508 88.0781C126.016 83.5239 120.766 81.2581 113.945 81.1588L113.916 83.1586ZM127.921 89.2952C131.012 93.3253 132.611 98.8159 132.611 105.871H134.611C134.611 98.5255 132.946 92.56 129.508 88.0781L127.921 89.2952ZM132.611 105.871C132.611 112.924 131.013 118.468 127.915 122.599L129.515 123.799C132.945 119.225 134.611 113.217 134.611 105.871H132.611ZM127.915 122.599C124.884 126.639 120.294 128.675 113.945 128.583L113.916 130.583C120.752 130.682 126.017 128.462 129.515 123.799L127.915 122.599ZM157.977 140.431H156.977V141.431H157.977V140.431ZM200.793 140.431V141.431H201.793V140.431H200.793ZM200.793 128.239H201.793V127.239H200.793V128.239ZM171.033 128.239H170.033V129.239H171.033V128.239ZM171.033 71.3107H172.033V70.3107H171.033V71.3107ZM157.977 71.3107V70.3107H156.977V71.3107H157.977ZM157.977 141.431H200.793V139.431H157.977V141.431ZM201.793 140.431V128.239H199.793V140.431H201.793ZM200.793 127.239H171.033V129.239H200.793V127.239ZM172.033 128.239V71.3107H170.033V128.239H172.033ZM171.033 70.3107H157.977V72.3107H171.033V70.3107ZM156.977 71.3107V140.431H158.977V71.3107H156.977ZM204.154 140.431L203.198 140.138L202.803 141.431H204.154V140.431ZM217.594 140.431V141.431H218.336L218.551 140.721L217.594 140.431ZM221.962 126.031V125.031H221.221L221.005 125.74L221.962 126.031ZM247.978 126.031L248.934 125.735L248.715 125.031H247.978V126.031ZM252.442 140.431L251.487 140.727L251.705 141.431H252.442V140.431ZM265.882 140.431V141.431H267.234L266.839 140.138L265.882 140.431ZM244.762 71.3107L245.719 71.0184L245.502 70.3107H244.762V71.3107ZM225.274 71.3107V70.3107H224.534L224.318 71.0184L225.274 71.3107ZM225.658 113.839L224.702 113.548L224.309 114.839H225.658V113.839ZM234.874 83.5507L235.83 83.2554L234.867 80.1398L233.918 83.2596L234.874 83.5507ZM244.234 113.839V114.839H245.59L245.19 113.543L244.234 113.839ZM204.154 141.431H217.594V139.431H204.154V141.431ZM218.551 140.721L222.919 126.321L221.005 125.74L216.637 140.14L218.551 140.721ZM221.962 127.031H247.978V125.031H221.962V127.031ZM247.023 126.327L251.487 140.727L253.398 140.135L248.934 125.735L247.023 126.327ZM252.442 141.431H265.882V139.431H252.442V141.431ZM266.839 140.138L245.719 71.0184L243.806 71.6029L264.926 140.723L266.839 140.138ZM244.762 70.3107H225.274V72.3107H244.762V70.3107ZM224.318 71.0184L203.198 140.138L205.111 140.723L226.231 71.6029L224.318 71.0184ZM226.615 114.13L235.831 83.8418L233.918 83.2596L224.702 113.548L226.615 114.13ZM233.919 83.8459L243.279 114.134L245.19 113.543L235.83 83.2554L233.919 83.8459ZM244.234 112.839H225.658V114.839H244.234V112.839Z" fill="white"/>
<path opacity="0.2" d="M19.9544 156.431H18.9544V157.431H19.9544V156.431ZM33.0104 156.431V157.431H34.0104V156.431H33.0104ZM33.0104 133.007V132.007H32.0104V133.007H33.0104ZM47.5544 133.007L48.4539 132.57L48.1804 132.007H47.5544V133.007ZM58.9304 156.431L58.0308 156.868L58.3043 157.431H58.9304V156.431ZM73.7144 156.431V157.431H75.3135L74.6135 155.993L73.7144 156.431ZM61.2344 130.799L60.82 129.889L59.8861 130.314L60.3353 131.236L61.2344 130.799ZM69.9224 122.687L69.0343 122.227L69.0327 122.23L69.9224 122.687ZM54.8984 87.6947L54.7226 88.6791L54.734 88.6811L54.7456 88.6829L54.8984 87.6947ZM51.8264 87.4067L51.7693 88.405L51.784 88.4059L51.7986 88.4063L51.8264 87.4067ZM19.9544 87.3107V86.3107H18.9544V87.3107H19.9544ZM33.0104 120.815H32.0104V121.815H33.0104V120.815ZM33.0104 99.5027V98.5027H32.0104V99.5027H33.0104ZM50.7704 99.5987L50.6906 100.595H50.6906L50.7704 99.5987ZM52.9784 99.9827L52.7036 100.944L52.7153 100.947L52.9784 99.9827ZM57.0584 102.431L56.2901 103.071L56.2991 103.081L57.0584 102.431ZM59.0264 106.223L58.0562 106.465L58.0595 106.478L58.0632 106.491L59.0264 106.223ZM59.0264 114.143L58.0616 113.88L58.0595 113.887L58.0576 113.895L59.0264 114.143ZM57.0584 117.935L57.8177 118.586L57.8266 118.575L57.0584 117.935ZM52.9784 120.335L52.7152 119.37L52.7037 119.373L52.9784 120.335ZM50.7704 120.719L50.8501 121.715H50.8501L50.7704 120.719ZM19.9544 157.431H33.0104V155.431H19.9544V157.431ZM34.0104 156.431V133.007H32.0104V156.431H34.0104ZM33.0104 134.007H47.5544V132.007H33.0104V134.007ZM46.6548 133.444L58.0308 156.868L59.8299 155.994L48.4539 132.57L46.6548 133.444ZM58.9304 157.431H73.7144V155.431H58.9304V157.431ZM74.6135 155.993L62.1335 130.361L60.3353 131.236L72.8153 156.868L74.6135 155.993ZM61.6487 131.709C65.7756 129.83 68.8463 126.973 70.812 123.143L69.0327 122.23C67.2864 125.632 64.5651 128.183 60.82 129.889L61.6487 131.709ZM70.8105 123.146C72.782 119.337 73.7544 114.999 73.7544 110.159H71.7544C71.7544 114.726 70.8387 118.74 69.0343 122.227L70.8105 123.146ZM73.7544 110.159C73.7544 104.166 72.2865 98.9981 69.3034 94.7078L67.6613 95.8495C70.3743 99.7513 71.7544 104.504 71.7544 110.159H73.7544ZM69.3034 94.7078C66.2608 90.3319 61.4552 87.6967 55.0512 86.7064L54.7456 88.6829C60.7575 89.6126 65.0079 92.0334 67.6613 95.8495L69.3034 94.7078ZM55.0742 86.7102C54.1184 86.5396 53.0434 86.4401 51.8541 86.407L51.7986 88.4063C52.9134 88.4372 53.8863 88.5298 54.7226 88.6791L55.0742 86.7102ZM51.8834 86.4083C50.7552 86.3438 49.8378 86.3107 49.1384 86.3107V88.3107C49.783 88.3107 50.6576 88.3415 51.7693 88.405L51.8834 86.4083ZM49.1384 86.3107H19.9544V88.3107H49.1384V86.3107ZM18.9544 87.3107V156.431H20.9544V87.3107H18.9544ZM34.0104 120.815V99.5027H32.0104V120.815H34.0104ZM33.0104 100.503H48.5624V98.5027H33.0104V100.503ZM48.5624 100.503C49.2033 100.503 49.9122 100.533 50.6906 100.595L50.8501 98.6018C50.0285 98.5361 49.2655 98.5027 48.5624 98.5027V100.503ZM50.6906 100.595C51.4341 100.655 52.1039 100.773 52.7037 100.944L53.2531 99.0211C52.5089 98.8085 51.7066 98.6704 50.8501 98.6018L50.6906 100.595ZM52.7153 100.947C54.3211 101.385 55.4875 102.108 56.2902 103.071L57.8266 101.79C56.7093 100.45 55.1557 99.5399 53.2415 99.0179L52.7153 100.947ZM56.2991 103.081C57.1598 104.086 57.7425 105.21 58.0562 106.465L59.9965 105.98C59.6062 104.419 58.8769 103.016 57.8176 101.78L56.2991 103.081ZM58.0632 106.491C58.4262 107.792 58.6024 109.014 58.6024 110.159H60.6024C60.6024 108.808 60.3945 107.405 59.9896 105.954L58.0632 106.491ZM58.6024 110.159C58.6024 111.304 58.4261 112.543 58.0616 113.88L59.9911 114.406C60.3947 112.926 60.6024 111.509 60.6024 110.159H58.6024ZM58.0576 113.895C57.7445 115.119 57.1604 116.25 56.2902 117.294L57.8266 118.575C58.8764 117.315 59.6043 115.919 59.9952 114.39L58.0576 113.895ZM56.2991 117.284C55.4973 118.219 54.3282 118.93 52.7153 119.37L53.2415 121.299C55.1485 120.779 56.6995 119.89 57.8176 118.585L56.2991 117.284ZM52.7037 119.373C52.1039 119.545 51.4341 119.662 50.6906 119.722L50.8501 121.715C51.7066 121.647 52.5089 121.509 53.2531 121.296L52.7037 119.373ZM50.6906 119.722C49.9123 119.784 49.2033 119.815 48.5624 119.815V121.815C49.2655 121.815 50.0285 121.781 50.8501 121.715L50.6906 119.722ZM48.5624 119.815H33.0104V121.815H48.5624V119.815ZM131.787 153.359L131.273 152.501L131.271 152.502L131.787 153.359ZM143.355 140.735L142.462 140.285L142.459 140.29L143.355 140.735ZM143.355 103.007L142.459 103.452L142.462 103.456L143.355 103.007ZM131.787 90.3827L131.271 91.2392L131.273 91.2406L131.787 90.3827ZM96.0269 90.3827L95.5132 89.5247L95.5108 89.5261L96.0269 90.3827ZM84.4589 103.007L83.5655 102.557L83.5634 102.562L84.4589 103.007ZM84.4589 140.735L83.5634 141.18L83.5655 141.184L84.4589 140.735ZM96.0269 153.359L95.5108 154.215L95.5132 154.217L96.0269 153.359ZM113.931 145.583L113.916 146.583H113.916L113.931 145.583ZM99.1469 139.055L98.3534 139.663L98.3562 139.667L99.1469 139.055ZM99.1469 104.543L98.3497 103.939L98.3469 103.943L99.1469 104.543ZM113.931 98.1587L113.916 99.1586L113.916 99.1586L113.931 98.1587ZM128.715 104.687L129.508 104.078V104.078L128.715 104.687ZM128.715 139.199L129.515 139.799L128.715 139.199ZM113.931 158.871C120.991 158.871 127.128 157.333 132.303 154.215L131.271 152.502C126.461 155.4 120.695 156.871 113.931 156.871V158.871ZM132.301 154.217C137.494 151.107 141.48 146.753 144.25 141.18L142.459 140.29C139.854 145.532 136.128 149.594 131.273 152.501L132.301 154.217ZM144.248 141.184C147.05 135.613 148.435 129.166 148.435 121.871H146.435C146.435 128.911 145.1 135.04 142.462 140.285L144.248 141.184ZM148.435 121.871C148.435 114.575 147.05 108.128 144.248 102.557L142.462 103.456C145.1 108.701 146.435 114.83 146.435 121.871H148.435ZM144.25 102.562C141.48 96.9879 137.494 92.6342 132.301 89.5247L131.273 91.2406C136.128 94.1472 139.854 98.2094 142.459 103.452L144.25 102.562ZM132.303 89.5261C127.128 86.4081 120.991 84.8707 113.931 84.8707V86.8707C120.695 86.8707 126.461 88.3412 131.271 91.2392L132.303 89.5261ZM113.931 84.8707C106.871 84.8707 100.718 86.4082 95.5132 89.5247L96.5406 91.2406C101.383 88.3412 107.167 86.8707 113.931 86.8707V84.8707ZM95.5108 89.5261C90.3507 92.6354 86.3669 96.9876 83.5655 102.557L85.3522 103.456C87.9909 98.2097 91.7191 94.1459 96.543 91.2392L95.5108 89.5261ZM83.5634 102.562C80.7949 108.131 79.4269 114.577 79.4269 121.871H81.4269C81.4269 114.828 82.7468 108.698 85.3544 103.452L83.5634 102.562ZM79.4269 121.871C79.4269 129.164 80.7949 135.61 83.5634 141.18L85.3544 140.29C82.7468 135.043 81.4269 128.913 81.4269 121.871H79.4269ZM83.5655 141.184C86.3669 146.754 90.3507 151.106 95.5108 154.215L96.543 152.502C91.7191 149.595 87.9909 145.532 85.3522 140.285L83.5655 141.184ZM95.5132 154.217C100.718 157.333 106.871 158.871 113.931 158.871V156.871C107.167 156.871 101.383 155.4 96.5406 152.501L95.5132 154.217ZM113.946 144.583C107.616 144.49 103.006 142.405 99.9375 138.442L98.3562 139.667C101.879 144.216 107.126 146.483 113.916 146.583L113.946 144.583ZM99.9404 138.446C96.8496 134.416 95.2509 128.925 95.2509 121.871H93.2509C93.2509 129.216 94.9161 135.181 98.3534 139.663L99.9404 138.446ZM95.2509 121.871C95.2509 114.817 96.8491 109.273 99.9469 105.143L98.3469 103.943C94.9167 108.516 93.2509 114.524 93.2509 121.871H95.2509ZM99.9441 105.146C103.008 101.101 107.602 99.0662 113.916 99.1586L113.946 97.1588C107.14 97.0592 101.878 99.2805 98.3497 103.939L99.9441 105.146ZM113.916 99.1586C120.28 99.2512 124.886 101.337 127.921 105.295L129.508 104.078C126.016 99.5239 120.766 97.2581 113.945 97.1588L113.916 99.1586ZM127.921 105.295C131.012 109.325 132.611 114.816 132.611 121.871H134.611C134.611 114.525 132.946 108.56 129.508 104.078L127.921 105.295ZM132.611 121.871C132.611 128.924 131.013 134.468 127.915 138.599L129.515 139.799C132.945 135.225 134.611 129.217 134.611 121.871H132.611ZM127.915 138.599C124.884 142.639 120.294 144.675 113.945 144.583L113.916 146.583C120.752 146.682 126.017 144.462 129.515 139.799L127.915 138.599ZM157.977 156.431H156.977V157.431H157.977V156.431ZM200.793 156.431V157.431H201.793V156.431H200.793ZM200.793 144.239H201.793V143.239H200.793V144.239ZM171.033 144.239H170.033V145.239H171.033V144.239ZM171.033 87.3107H172.033V86.3107H171.033V87.3107ZM157.977 87.3107V86.3107H156.977V87.3107H157.977ZM157.977 157.431H200.793V155.431H157.977V157.431ZM201.793 156.431V144.239H199.793V156.431H201.793ZM200.793 143.239H171.033V145.239H200.793V143.239ZM172.033 144.239V87.3107H170.033V144.239H172.033ZM171.033 86.3107H157.977V88.3107H171.033V86.3107ZM156.977 87.3107V156.431H158.977V87.3107H156.977ZM204.154 156.431L203.198 156.138L202.803 157.431H204.154V156.431ZM217.594 156.431V157.431H218.336L218.551 156.721L217.594 156.431ZM221.962 142.031V141.031H221.221L221.005 141.74L221.962 142.031ZM247.978 142.031L248.934 141.735L248.715 141.031H247.978V142.031ZM252.442 156.431L251.487 156.727L251.705 157.431H252.442V156.431ZM265.882 156.431V157.431H267.234L266.839 156.138L265.882 156.431ZM244.762 87.3107L245.719 87.0184L245.502 86.3107H244.762V87.3107ZM225.274 87.3107V86.3107H224.534L224.318 87.0184L225.274 87.3107ZM225.658 129.839L224.702 129.548L224.309 130.839H225.658V129.839ZM234.874 99.5507L235.83 99.2554L234.867 96.1398L233.918 99.2596L234.874 99.5507ZM244.234 129.839V130.839H245.59L245.19 129.543L244.234 129.839ZM204.154 157.431H217.594V155.431H204.154V157.431ZM218.551 156.721L222.919 142.321L221.005 141.74L216.637 156.14L218.551 156.721ZM221.962 143.031H247.978V141.031H221.962V143.031ZM247.023 142.327L251.487 156.727L253.398 156.135L248.934 141.735L247.023 142.327ZM252.442 157.431H265.882V155.431H252.442V157.431ZM266.839 156.138L245.719 87.0184L243.806 87.6029L264.926 156.723L266.839 156.138ZM244.762 86.3107H225.274V88.3107H244.762V86.3107ZM224.318 87.0184L203.198 156.138L205.111 156.723L226.231 87.6029L224.318 87.0184ZM226.615 130.13L235.831 99.8418L233.918 99.2596L224.702 129.548L226.615 130.13ZM233.919 99.8459L243.279 130.134L245.19 129.543L235.83 99.2554L233.919 99.8459ZM244.234 128.839H225.658V130.839H244.234V128.839Z" fill="white"/>
<path opacity="0.1" d="M19.9544 172.431H18.9544V173.431H19.9544V172.431ZM33.0104 172.431V173.431H34.0104V172.431H33.0104ZM33.0104 149.007V148.007H32.0104V149.007H33.0104ZM47.5544 149.007L48.4539 148.57L48.1804 148.007H47.5544V149.007ZM58.9304 172.431L58.0308 172.868L58.3043 173.431H58.9304V172.431ZM73.7144 172.431V173.431H75.3135L74.6135 171.993L73.7144 172.431ZM61.2344 146.799L60.82 145.889L59.8861 146.314L60.3353 147.236L61.2344 146.799ZM69.9224 138.687L69.0343 138.227L69.0327 138.23L69.9224 138.687ZM54.8984 103.695L54.7226 104.679L54.734 104.681L54.7456 104.683L54.8984 103.695ZM51.8264 103.407L51.7693 104.405L51.784 104.406L51.7986 104.406L51.8264 103.407ZM19.9544 103.311V102.311H18.9544V103.311H19.9544ZM33.0104 136.815H32.0104V137.815H33.0104V136.815ZM33.0104 115.503V114.503H32.0104V115.503H33.0104ZM50.7704 115.599L50.6906 116.595H50.6906L50.7704 115.599ZM52.9784 115.983L52.7036 116.944L52.7153 116.947L52.9784 115.983ZM57.0584 118.431L56.2901 119.071L56.2991 119.081L57.0584 118.431ZM59.0264 122.223L58.0562 122.465L58.0595 122.478L58.0632 122.491L59.0264 122.223ZM59.0264 130.143L58.0616 129.88L58.0595 129.887L58.0576 129.895L59.0264 130.143ZM57.0584 133.935L57.8177 134.586L57.8266 134.575L57.0584 133.935ZM52.9784 136.335L52.7152 135.37L52.7037 135.373L52.9784 136.335ZM50.7704 136.719L50.8501 137.715H50.8501L50.7704 136.719ZM19.9544 173.431H33.0104V171.431H19.9544V173.431ZM34.0104 172.431V149.007H32.0104V172.431H34.0104ZM33.0104 150.007H47.5544V148.007H33.0104V150.007ZM46.6548 149.444L58.0308 172.868L59.8299 171.994L48.4539 148.57L46.6548 149.444ZM58.9304 173.431H73.7144V171.431H58.9304V173.431ZM74.6135 171.993L62.1335 146.361L60.3353 147.236L72.8153 172.868L74.6135 171.993ZM61.6487 147.709C65.7756 145.83 68.8463 142.973 70.812 139.143L69.0327 138.23C67.2864 141.632 64.5651 144.183 60.82 145.889L61.6487 147.709ZM70.8105 139.146C72.782 135.337 73.7544 130.999 73.7544 126.159H71.7544C71.7544 130.726 70.8387 134.74 69.0343 138.227L70.8105 139.146ZM73.7544 126.159C73.7544 120.166 72.2865 114.998 69.3034 110.708L67.6613 111.85C70.3743 115.751 71.7544 120.504 71.7544 126.159H73.7544ZM69.3034 110.708C66.2608 106.332 61.4552 103.697 55.0512 102.706L54.7456 104.683C60.7575 105.613 65.0079 108.033 67.6613 111.85L69.3034 110.708ZM55.0742 102.71C54.1184 102.54 53.0434 102.44 51.8541 102.407L51.7986 104.406C52.9134 104.437 53.8863 104.53 54.7226 104.679L55.0742 102.71ZM51.8834 102.408C50.7552 102.344 49.8378 102.311 49.1384 102.311V104.311C49.783 104.311 50.6576 104.342 51.7693 104.405L51.8834 102.408ZM49.1384 102.311H19.9544V104.311H49.1384V102.311ZM18.9544 103.311V172.431H20.9544V103.311H18.9544ZM34.0104 136.815V115.503H32.0104V136.815H34.0104ZM33.0104 116.503H48.5624V114.503H33.0104V116.503ZM48.5624 116.503C49.2033 116.503 49.9122 116.533 50.6906 116.595L50.8501 114.602C50.0285 114.536 49.2655 114.503 48.5624 114.503V116.503ZM50.6906 116.595C51.4341 116.655 52.1039 116.773 52.7037 116.944L53.2531 115.021C52.5089 114.809 51.7066 114.67 50.8501 114.602L50.6906 116.595ZM52.7153 116.947C54.3211 117.385 55.4875 118.108 56.2902 119.071L57.8266 117.79C56.7093 116.45 55.1557 115.54 53.2415 115.018L52.7153 116.947ZM56.2991 119.081C57.1598 120.086 57.7425 121.21 58.0562 122.465L59.9965 121.98C59.6062 120.419 58.8769 119.016 57.8176 117.78L56.2991 119.081ZM58.0632 122.491C58.4262 123.792 58.6024 125.014 58.6024 126.159H60.6024C60.6024 124.808 60.3945 123.405 59.9896 121.954L58.0632 122.491ZM58.6024 126.159C58.6024 127.304 58.4261 128.543 58.0616 129.88L59.9911 130.406C60.3947 128.926 60.6024 127.509 60.6024 126.159H58.6024ZM58.0576 129.895C57.7445 131.119 57.1604 132.25 56.2902 133.294L57.8266 134.575C58.8764 133.315 59.6043 131.919 59.9952 130.39L58.0576 129.895ZM56.2991 133.284C55.4973 134.219 54.3282 134.93 52.7153 135.37L53.2415 137.299C55.1485 136.779 56.6995 135.89 57.8176 134.585L56.2991 133.284ZM52.7037 135.373C52.1039 135.545 51.4341 135.662 50.6906 135.722L50.8501 137.715C51.7066 137.647 52.5089 137.509 53.2531 137.296L52.7037 135.373ZM50.6906 135.722C49.9123 135.784 49.2033 135.815 48.5624 135.815V137.815C49.2655 137.815 50.0285 137.781 50.8501 137.715L50.6906 135.722ZM48.5624 135.815H33.0104V137.815H48.5624V135.815ZM131.787 169.359L131.273 168.501L131.271 168.502L131.787 169.359ZM143.355 156.735L142.462 156.285L142.459 156.29L143.355 156.735ZM143.355 119.007L142.459 119.452L142.462 119.456L143.355 119.007ZM131.787 106.383L131.271 107.239L131.273 107.241L131.787 106.383ZM96.0269 106.383L95.5132 105.525L95.5108 105.526L96.0269 106.383ZM84.4589 119.007L83.5655 118.557L83.5634 118.562L84.4589 119.007ZM84.4589 156.735L83.5634 157.18L83.5655 157.184L84.4589 156.735ZM96.0269 169.359L95.5108 170.215L95.5132 170.217L96.0269 169.359ZM113.931 161.583L113.916 162.583H113.916L113.931 161.583ZM99.1469 155.055L98.3534 155.663L98.3562 155.667L99.1469 155.055ZM99.1469 120.543L98.3497 119.939L98.3469 119.943L99.1469 120.543ZM113.931 114.159L113.916 115.159L113.916 115.159L113.931 114.159ZM128.715 120.687L129.508 120.078V120.078L128.715 120.687ZM128.715 155.199L129.515 155.799L128.715 155.199ZM113.931 174.871C120.991 174.871 127.128 173.333 132.303 170.215L131.271 168.502C126.461 171.4 120.695 172.871 113.931 172.871V174.871ZM132.301 170.217C137.494 167.107 141.48 162.753 144.25 157.18L142.459 156.29C139.854 161.532 136.128 165.594 131.273 168.501L132.301 170.217ZM144.248 157.184C147.05 151.613 148.435 145.166 148.435 137.871H146.435C146.435 144.911 145.1 151.04 142.462 156.285L144.248 157.184ZM148.435 137.871C148.435 130.575 147.05 124.128 144.248 118.557L142.462 119.456C145.1 124.701 146.435 130.83 146.435 137.871H148.435ZM144.25 118.562C141.48 112.988 137.494 108.634 132.301 105.525L131.273 107.241C136.128 110.147 139.854 114.209 142.459 119.452L144.25 118.562ZM132.303 105.526C127.128 102.408 120.991 100.871 113.931 100.871V102.871C120.695 102.871 126.461 104.341 131.271 107.239L132.303 105.526ZM113.931 100.871C106.871 100.871 100.718 102.408 95.5132 105.525L96.5406 107.241C101.383 104.341 107.167 102.871 113.931 102.871V100.871ZM95.5108 105.526C90.3507 108.635 86.3669 112.988 83.5655 118.557L85.3522 119.456C87.9909 114.21 91.7191 110.146 96.543 107.239L95.5108 105.526ZM83.5634 118.562C80.7949 124.131 79.4269 130.577 79.4269 137.871H81.4269C81.4269 130.828 82.7468 124.698 85.3544 119.452L83.5634 118.562ZM79.4269 137.871C79.4269 145.164 80.7949 151.61 83.5634 157.18L85.3544 156.29C82.7468 151.043 81.4269 144.913 81.4269 137.871H79.4269ZM83.5655 157.184C86.3669 162.754 90.3507 167.106 95.5108 170.215L96.543 168.502C91.7191 165.595 87.9909 161.532 85.3522 156.285L83.5655 157.184ZM95.5132 170.217C100.718 173.333 106.871 174.871 113.931 174.871V172.871C107.167 172.871 101.383 171.4 96.5406 168.501L95.5132 170.217ZM113.946 160.583C107.616 160.49 103.006 158.405 99.9375 154.442L98.3562 155.667C101.879 160.216 107.126 162.483 113.916 162.583L113.946 160.583ZM99.9404 154.446C96.8496 150.416 95.2509 144.925 95.2509 137.871H93.2509C93.2509 145.216 94.9161 151.181 98.3534 155.663L99.9404 154.446ZM95.2509 137.871C95.2509 130.817 96.8491 125.273 99.9469 121.143L98.3469 119.943C94.9167 124.516 93.2509 130.524 93.2509 137.871H95.2509ZM99.9441 121.146C103.008 117.101 107.602 115.066 113.916 115.159L113.946 113.159C107.14 113.059 101.878 115.281 98.3497 119.939L99.9441 121.146ZM113.916 115.159C120.28 115.251 124.886 117.337 127.921 121.295L129.508 120.078C126.016 115.524 120.766 113.258 113.945 113.159L113.916 115.159ZM127.921 121.295C131.012 125.325 132.611 130.816 132.611 137.871H134.611C134.611 130.525 132.946 124.56 129.508 120.078L127.921 121.295ZM132.611 137.871C132.611 144.924 131.013 150.468 127.915 154.599L129.515 155.799C132.945 151.225 134.611 145.217 134.611 137.871H132.611ZM127.915 154.599C124.884 158.639 120.294 160.675 113.945 160.583L113.916 162.583C120.752 162.682 126.017 160.462 129.515 155.799L127.915 154.599ZM157.977 172.431H156.977V173.431H157.977V172.431ZM200.793 172.431V173.431H201.793V172.431H200.793ZM200.793 160.239H201.793V159.239H200.793V160.239ZM171.033 160.239H170.033V161.239H171.033V160.239ZM171.033 103.311H172.033V102.311H171.033V103.311ZM157.977 103.311V102.311H156.977V103.311H157.977ZM157.977 173.431H200.793V171.431H157.977V173.431ZM201.793 172.431V160.239H199.793V172.431H201.793ZM200.793 159.239H171.033V161.239H200.793V159.239ZM172.033 160.239V103.311H170.033V160.239H172.033ZM171.033 102.311H157.977V104.311H171.033V102.311ZM156.977 103.311V172.431H158.977V103.311H156.977ZM204.154 172.431L203.198 172.138L202.803 173.431H204.154V172.431ZM217.594 172.431V173.431H218.336L218.551 172.721L217.594 172.431ZM221.962 158.031V157.031H221.221L221.005 157.74L221.962 158.031ZM247.978 158.031L248.934 157.735L248.715 157.031H247.978V158.031ZM252.442 172.431L251.487 172.727L251.705 173.431H252.442V172.431ZM265.882 172.431V173.431H267.234L266.839 172.138L265.882 172.431ZM244.762 103.311L245.719 103.018L245.502 102.311H244.762V103.311ZM225.274 103.311V102.311H224.534L224.318 103.018L225.274 103.311ZM225.658 145.839L224.702 145.548L224.309 146.839H225.658V145.839ZM234.874 115.551L235.83 115.255L234.867 112.14L233.918 115.26L234.874 115.551ZM244.234 145.839V146.839H245.59L245.19 145.543L244.234 145.839ZM204.154 173.431H217.594V171.431H204.154V173.431ZM218.551 172.721L222.919 158.321L221.005 157.74L216.637 172.14L218.551 172.721ZM221.962 159.031H247.978V157.031H221.962V159.031ZM247.023 158.327L251.487 172.727L253.398 172.135L248.934 157.735L247.023 158.327ZM252.442 173.431H265.882V171.431H252.442V173.431ZM266.839 172.138L245.719 103.018L243.806 103.603L264.926 172.723L266.839 172.138ZM244.762 102.311H225.274V104.311H244.762V102.311ZM224.318 103.018L203.198 172.138L205.111 172.723L226.231 103.603L224.318 103.018ZM226.615 146.13L235.831 115.842L233.918 115.26L224.702 145.548L226.615 146.13ZM233.919 115.846L243.279 146.134L245.19 145.543L235.83 115.255L233.919 115.846ZM244.234 144.839H225.658V146.839H244.234V144.839Z" fill="white"/>
<defs>
<linearGradient id="paint0_linear_846_15789" x1="131" y1="0" x2="131" y2="78" gradientUnits="userSpaceOnUse">
<stop stop-color="#FF2B51"/>
<stop offset="1" stop-color="#FF2B51" stop-opacity="0"/>
</linearGradient>
<linearGradient id="paint1_linear_846_15789" x1="303.36" y1="166.38" x2="231.61" y2="213.625" gradientUnits="userSpaceOnUse">
<stop stop-color="#0088EF"/>
<stop offset="1" stop-color="#FD6727"/>
</linearGradient>
<linearGradient id="paint2_linear_846_15789" x1="60.5032" y1="174" x2="139.836" y2="172.086" gradientUnits="userSpaceOnUse">
<stop stop-color="#7B61FF" stop-opacity="0.8"/>
<stop offset="1" stop-color="#7B61FF" stop-opacity="0"/>
</linearGradient>
<clipPath id="clip0_846_15789">
<rect width="24" height="24" fill="white" transform="translate(55 23)"/>
</clipPath>
<clipPath id="clip1_846_15789">
<rect width="24" height="24" fill="white" transform="translate(181 25)"/>
</clipPath>
<clipPath id="clip2_846_15789">
<rect width="24" height="24" fill="white" transform="translate(121 186)"/>
</clipPath>
</defs>
</svg>
