<svg width="16" height="16" viewBox="0 0 16 16" fill="none" xmlns="http://www.w3.org/2000/svg">
<g clip-path="url(#clip0_1134_13480)">
<path fill-rule="evenodd" clip-rule="evenodd" d="M11.229 4.36529C10.403 3.57749 9.3007 3.14831 8.16015 3.16595C6.07307 3.16595 4.30053 4.57399 3.66852 6.46999V6.47003C3.33341 7.4636 3.33341 8.53947 3.66851 9.53304H3.67145C4.30639 11.4261 6.076 12.8342 8.16309 12.8342C9.24044 12.8342 10.1653 12.5586 10.8822 12.0719V12.0699C11.7258 11.5114 12.302 10.6325 12.4813 9.63888H8.16016V6.55823H15.706C15.8001 7.09323 15.8442 7.63998 15.8442 8.1838C15.8442 10.617 14.9746 12.6742 13.4615 14.0676L13.4631 14.0688C12.1374 15.2916 10.3178 16.0001 8.16015 16.0001C5.13535 16.0001 2.36922 14.2951 1.01115 11.5937V11.5937C-0.123511 9.33315 -0.123508 6.66992 1.01116 4.4094H1.01117L1.01115 4.40938C2.36922 1.70499 5.13535 5.08294e-05 8.16015 5.08294e-05C10.1473 -0.0234656 12.0668 0.723182 13.5131 2.08126L11.229 4.36529Z" fill="white"/>
</g>
<defs>
<clipPath id="clip0_1134_13480">
<rect width="16" height="16" fill="white"/>
</clipPath>
</defs>
</svg>
