<svg width="375" height="379" viewBox="0 0 375 379" fill="none" xmlns="http://www.w3.org/2000/svg">
<g clip-path="url(#clip0_846_15791)">
<g opacity="0.5">
<path d="M244.552 58.373C262.823 66.3858 278.59 77.7357 291.449 91.3888C255.229 152.991 177.677 179.079 110.422 149.584C92.1512 141.571 76.3839 130.221 63.5245 116.568C99.7445 54.9662 177.296 28.8784 244.552 58.373Z" stroke="#00D4E3"/>
<path d="M244.552 58.373C262.823 66.3858 278.59 77.7357 291.449 91.3888C255.229 152.991 177.677 179.079 110.422 149.584C92.1512 141.571 76.3839 130.221 63.5245 116.568C99.7445 54.9662 177.296 28.8784 244.552 58.373Z" stroke="url(#paint0_linear_846_15791)"/>
</g>
<g opacity="0.2">
<path d="M106.419 158.713C174.044 188.37 207.382 263.752 185.888 332.429C167.087 332.237 148.006 328.327 129.687 320.293C62.062 290.636 28.7235 215.255 50.2173 146.578C69.0188 146.77 88.1 150.68 106.419 158.713Z" stroke="#E6F3FD"/>
<path d="M106.419 158.713C174.044 188.37 207.382 263.752 185.888 332.429C167.087 332.237 148.006 328.327 129.687 320.293C62.062 290.636 28.7235 215.255 50.2173 146.578C69.0188 146.77 88.1 150.68 106.419 158.713Z" stroke="url(#paint1_linear_846_15791)"/>
</g>
<path d="M211.846 199.506C230.736 156.433 268.351 127.362 311.011 117.611C333.189 155.748 337.499 203.519 318.46 246.932C299.57 290.006 261.956 319.077 219.295 328.827C197.118 290.69 192.808 242.919 211.846 199.506Z" stroke="#00E3EF"/>
<path d="M211.846 199.506C230.736 156.433 268.351 127.362 311.011 117.611C333.189 155.748 337.499 203.519 318.46 246.932C299.57 290.006 261.956 319.077 219.295 328.827C197.118 290.69 192.808 242.919 211.846 199.506Z" stroke="url(#paint2_linear_846_15791)"/>
</g>
<circle cx="133.714" cy="155.5" r="47.5" fill="white"/>
<circle cx="133.714" cy="155.5" r="47.5" fill="#7B61FF"/>
<circle cx="133.714" cy="155.5" r="47.5" fill="url(#paint3_linear_846_15791)"/>
<mask id="mask0_846_15791" style="mask-type:alpha" maskUnits="userSpaceOnUse" x="86" y="108" width="96" height="95">
<circle cx="133.714" cy="155.5" r="47.5" fill="#FFEDEF"/>
</mask>
<g mask="url(#mask0_846_15791)">
<g clip-path="url(#clip1_846_15791)">
<path d="M147.214 198.625C143.614 193.625 140.798 183.958 140.464 179.125L123.339 171.75L116.214 198.625H147.214Z" fill="#AC6651" stroke="black"/>
<mask id="mask1_846_15791" style="mask-type:alpha" maskUnits="userSpaceOnUse" x="116" y="171" width="455" height="432">
<path d="M570.446 602.172C517.696 528.909 476.425 350.636 471.541 279.814L220.614 171.75L116.214 602.172H570.446Z" fill="#AC6651"/>
</mask>
<g mask="url(#mask1_846_15791)">
<g style="mix-blend-mode:multiply">
<ellipse cx="139.714" cy="171.25" rx="14.75" ry="13.5" fill="black"/>
</g>
</g>
<mask id="path-9-inside-1_846_15791" fill="white">
<path fill-rule="evenodd" clip-rule="evenodd" d="M154.686 156.479C154.679 156.45 154.672 156.421 154.665 156.393C154.658 156.364 154.651 156.335 154.644 156.306L150.539 139.172C150.537 139.163 150.535 139.155 150.533 139.146C150.531 139.137 150.529 139.128 150.527 139.119L150.502 139.019L150.502 139.019C147.948 128.658 137.503 122.287 127.11 124.777C116.716 127.267 110.293 137.68 112.711 148.073L112.711 148.074L112.741 148.2L116.959 165.803L116.962 165.802C119.613 176.028 129.98 182.287 140.297 179.816C150.614 177.344 157.018 167.066 154.747 156.749L154.75 156.748L154.686 156.479Z"/>
</mask>
<path fill-rule="evenodd" clip-rule="evenodd" d="M154.686 156.479C154.679 156.45 154.672 156.421 154.665 156.393C154.658 156.364 154.651 156.335 154.644 156.306L150.539 139.172C150.537 139.163 150.535 139.155 150.533 139.146C150.531 139.137 150.529 139.128 150.527 139.119L150.502 139.019L150.502 139.019C147.948 128.658 137.503 122.287 127.11 124.777C116.716 127.267 110.293 137.68 112.711 148.073L112.711 148.074L112.741 148.2L116.959 165.803L116.962 165.802C119.613 176.028 129.98 182.287 140.297 179.816C150.614 177.344 157.018 167.066 154.747 156.749L154.75 156.748L154.686 156.479Z" fill="#AC6651"/>
<path d="M154.686 156.479L153.712 156.707L153.713 156.712L154.686 156.479ZM154.644 156.306L153.672 156.539L153.673 156.544L154.644 156.306ZM150.539 139.172L149.566 139.404L149.567 139.405L150.539 139.172ZM150.533 139.146L151.505 138.913L151.505 138.913L150.533 139.146ZM150.527 139.119L149.554 139.352L149.554 139.354L150.527 139.119ZM150.502 139.019L151.475 138.786L151.242 137.813L150.269 138.047L150.502 139.019ZM150.502 139.019L149.531 139.258L149.769 140.224L150.736 139.991L150.502 139.019ZM127.11 124.777L126.877 123.805L127.11 124.777ZM112.711 148.073L112.945 149.046L113.91 148.813L113.685 147.847L112.711 148.073ZM112.711 148.074L112.477 147.101L111.506 147.335L111.739 148.307L112.711 148.074ZM112.741 148.2L113.714 147.967L113.714 147.967L112.741 148.2ZM116.959 165.803L115.986 166.036L116.219 167.008L117.191 166.776L116.959 165.803ZM116.962 165.802L117.93 165.551L117.684 164.601L116.73 164.83L116.962 165.802ZM140.297 179.816L140.064 178.843L140.297 179.816ZM154.747 156.749L154.515 155.777L153.559 156.005L153.771 156.964L154.747 156.749ZM154.75 156.748L154.983 157.721L155.956 157.488L155.723 156.515L154.75 156.748ZM155.659 156.25C155.652 156.22 155.645 156.19 155.638 156.159L153.693 156.626C153.699 156.653 153.706 156.68 153.712 156.707L155.659 156.25ZM155.638 156.159C155.63 156.129 155.623 156.099 155.616 156.069L153.673 156.544C153.68 156.571 153.686 156.598 153.693 156.626L155.638 156.159ZM149.567 139.405L153.672 156.539L155.617 156.073L151.512 138.939L149.567 139.405ZM151.512 138.941C151.51 138.931 151.508 138.922 151.505 138.913L149.56 139.379C149.562 139.387 149.564 139.395 149.566 139.404L151.512 138.941ZM151.505 138.913C151.503 138.904 151.501 138.894 151.499 138.885L149.554 139.354C149.556 139.362 149.558 139.37 149.56 139.379L151.505 138.913ZM149.53 139.252L149.554 139.352L151.499 138.886L151.475 138.786L149.53 139.252ZM150.736 139.991L150.736 139.991L150.269 138.047L150.268 138.047L150.736 139.991ZM151.473 138.78C148.787 127.885 137.805 121.186 126.877 123.805L127.343 125.75C137.201 123.388 147.108 129.431 149.531 139.258L151.473 138.78ZM126.877 123.805C115.948 126.423 109.195 137.371 111.737 148.3L113.685 147.847C111.392 137.988 117.484 128.112 127.343 125.75L126.877 123.805ZM112.945 149.046L112.945 149.046L112.477 147.101L112.477 147.101L112.945 149.046ZM113.714 147.967L113.683 147.84L111.739 148.307L111.769 148.433L113.714 147.967ZM117.931 165.57L113.714 147.967L111.769 148.433L115.986 166.036L117.931 165.57ZM116.73 164.83L116.726 164.83L117.191 166.776L117.195 166.775L116.73 164.83ZM115.994 166.053C118.782 176.806 129.682 183.387 140.53 180.788L140.064 178.843C130.278 181.188 120.445 175.251 117.93 165.551L115.994 166.053ZM140.53 180.788C151.378 178.189 158.112 167.383 155.724 156.534L153.771 156.964C155.925 166.75 149.85 176.498 140.064 178.843L140.53 180.788ZM154.518 155.776L154.515 155.777L154.98 157.722L154.983 157.721L154.518 155.776ZM153.713 156.712L153.778 156.981L155.723 156.515L155.658 156.246L153.713 156.712Z" fill="black" mask="url(#path-9-inside-1_846_15791)"/>
</g>
<path d="M147.194 162.083C147.152 161.566 146.623 161.278 146.176 161.454C145.118 161.871 141.621 163.196 139.155 163.535C136.449 163.907 132.352 163.455 131.166 163.308C130.684 163.248 130.254 163.663 130.337 164.166C130.5 165.152 130.835 166.102 131.329 166.973C131.88 167.944 132.616 168.797 133.496 169.483C134.376 170.17 135.383 170.676 136.459 170.973C137.535 171.271 138.659 171.353 139.767 171.216C140.875 171.079 141.945 170.725 142.916 170.175C143.887 169.624 144.74 168.888 145.426 168.007C146.112 167.127 146.619 166.12 146.916 165.044C147.183 164.08 147.276 163.078 147.194 162.083Z" fill="black" stroke="black"/>
<mask id="mask2_846_15791" style="mask-type:alpha" maskUnits="userSpaceOnUse" x="130" y="161" width="17" height="10">
<path d="M146.663 161.798C146.792 162.841 146.714 163.899 146.434 164.911C146.154 165.924 145.678 166.871 145.032 167.7C144.386 168.528 143.583 169.221 142.669 169.74C141.755 170.258 140.748 170.591 139.705 170.72C138.663 170.849 137.605 170.771 136.592 170.491C135.58 170.212 134.632 169.735 133.804 169.089C132.975 168.443 132.282 167.64 131.764 166.726C131.246 165.812 130.913 164.805 130.784 163.763L146.663 161.798Z" fill="#171921"/>
</mask>
<g mask="url(#mask2_846_15791)">
<circle cx="139.845" cy="171.829" r="5.375" transform="rotate(-7.05286 139.845 171.829)" fill="#FC909F"/>
</g>
<path d="M140.964 141.054C142.381 140.387 145.714 139.779 147.714 142.679" stroke="black" stroke-linecap="round"/>
<path d="M122.109 147.38C122.627 145.903 124.53 143.099 128 143.706" stroke="black" stroke-linecap="round"/>
<path opacity="0.35" d="M147.961 135.044C145.961 133.444 142.503 133.294 141.086 133.419L139.086 126.794C142.486 127.594 147.086 132.794 147.961 135.044Z" fill="#717376"/>
<path d="M122.412 118.691C122.412 118.691 123.847 117.701 129.901 116.175C135.955 114.65 138.162 115.246 138.162 115.246L141.11 133.454C141.11 133.454 139.1 133.41 134.101 134.502C129.103 135.594 126.711 136.919 126.711 136.919L122.412 118.691Z" fill="#171921"/>
<path d="M113.211 137.419C111.511 127.019 119.044 120.377 122.461 118.544L126.711 136.919C121.911 127.019 115.377 133.127 113.211 137.419Z" fill="#171921"/>
<path opacity="0.35" d="M117.836 148.419C116.036 141.619 123.336 137.96 126.711 136.919C124.961 132.835 120.961 129.169 116.086 133.669C111.586 141.294 113.336 147.169 114.711 151.669L117.836 148.419Z" fill="#717376"/>
<path fill-rule="evenodd" clip-rule="evenodd" d="M125.547 151.274C125.576 151.477 125.834 151.522 125.978 151.376C126.594 150.747 127.542 150.285 128.641 150.154C129.29 150.077 129.914 150.125 130.47 150.272C130.659 150.322 130.844 150.163 130.778 149.98C130.362 148.818 129.187 148.055 127.909 148.207C126.424 148.383 125.363 149.73 125.54 151.215C125.542 151.235 125.545 151.255 125.547 151.274Z" fill="black"/>
<path fill-rule="evenodd" clip-rule="evenodd" d="M141.572 148.774C141.6 148.977 141.858 149.023 142.002 148.876C142.613 148.255 143.55 147.798 144.638 147.669C145.279 147.593 145.896 147.64 146.446 147.785C146.634 147.835 146.819 147.676 146.753 147.492C146.34 146.344 145.177 145.589 143.913 145.74C142.441 145.914 141.39 147.249 141.565 148.721C141.567 148.738 141.569 148.756 141.572 148.774Z" fill="#171921"/>
<path d="M136.284 152.732C137.589 152.235 139.865 152.385 139.724 154.91C139.6 157.154 137.298 157.599 136.564 157.076" stroke="#162534"/>
<path d="M117.339 153.044C116.757 152.852 116.128 152.75 115.484 152.75C112.861 152.75 110.734 154.375 110.984 157.375C111.245 160.5 113.111 161.625 115.734 161.625C116.026 161.625 116.312 161.599 116.589 161.55C116.892 161.497 117.185 161.415 117.464 161.309" stroke="#171921" stroke-width="2"/>
<path d="M117.589 161.259C117.019 161.495 116.393 161.625 115.734 161.625C113.111 161.625 111.245 160.5 110.984 157.375C110.734 154.375 112.861 152.75 115.484 152.75C116.269 152.75 117.031 152.901 117.714 153.182L117.589 161.259Z" fill="#AC6651"/>
<path d="M116.589 154.875C115.589 154.417 113.389 154.175 112.589 156.875" stroke="#171921"/>
<path d="M113.964 155C114.506 155.458 115.539 156.875 115.339 158.875" stroke="#171921"/>
<path d="M133.657 197.894L133.964 197.5L133.657 197.894L134.088 198.23L134.384 197.772L134.384 197.772L134.385 197.771L134.387 197.767L134.397 197.752C134.4 197.748 134.403 197.743 134.407 197.737C134.415 197.724 134.426 197.708 134.439 197.688C134.477 197.632 134.533 197.549 134.607 197.442C134.754 197.23 134.97 196.925 135.244 196.562C135.792 195.833 136.568 194.871 137.482 193.93C138.399 192.986 139.439 192.079 140.514 191.448C141.593 190.815 142.659 190.487 143.648 190.621C154.257 192.051 162.065 196.75 167.133 203.75H98.808C102.883 196.415 108.679 191.746 118.076 189.603C118.476 189.512 119.02 189.54 119.701 189.698C120.375 189.855 121.143 190.13 121.971 190.494C123.628 191.222 125.477 192.284 127.215 193.384C128.951 194.482 130.562 195.611 131.74 196.465C132.329 196.892 132.809 197.25 133.142 197.501C133.308 197.626 133.437 197.725 133.525 197.792L133.624 197.869L133.649 197.888L133.655 197.893L133.657 197.894L133.657 197.894Z" fill="#6BD9E9" stroke="black"/>
<path d="M115.118 190.271L116.409 185.463C116.462 185.269 116.713 185.214 116.849 185.362C120.565 189.428 125.254 189.269 126.811 189.083C127.022 189.057 127.187 189.288 127.088 189.477L123.799 195.715C123.748 195.81 123.645 195.863 123.539 195.841C122.552 195.635 117.634 194.433 115.147 190.467C115.11 190.409 115.1 190.338 115.118 190.271Z" fill="#D2EFF3" stroke="black"/>
<path d="M147.763 190.245L144.868 185.375C144.77 185.209 144.528 185.212 144.423 185.373C142.989 187.582 140.515 188.6 139.65 188.901C139.494 188.955 139.423 189.14 139.507 189.281L142.883 194.985C142.933 195.07 143.028 195.116 143.123 195.089C143.657 194.937 145.488 194.171 147.76 190.505C147.809 190.427 147.811 190.325 147.763 190.245Z" fill="#D2EFF3" stroke="black"/>
<path d="M129.339 194.625L127.089 189.25L125.339 193L129.339 194.625Z" fill="black" stroke="black" stroke-linejoin="round"/>
<path d="M137.214 194.375L139.464 189L141.214 192.75L137.214 194.375Z" fill="black" stroke="black" stroke-linejoin="round"/>
<path d="M119.589 184.5L116.589 185.25L119.089 186.875L119.589 184.5Z" fill="black" stroke="black" stroke-linejoin="round"/>
<path d="M141.964 184.5L144.714 185.25L142.964 186.875L141.964 184.5Z" fill="black" stroke="black" stroke-linejoin="round"/>
</g>
<circle cx="242.286" cy="155.5" r="47.5" fill="#00E3EF" fill-opacity="0.8"/>
<circle cx="242.286" cy="155.5" r="47.5" fill="url(#paint4_linear_846_15791)" fill-opacity="0.9"/>
<mask id="mask3_846_15791" style="mask-type:alpha" maskUnits="userSpaceOnUse" x="194" y="108" width="96" height="95">
<circle cx="242.286" cy="155.5" r="47.5" fill="#FFEDEF"/>
</mask>
<g mask="url(#mask3_846_15791)">
<path d="M255.777 201.116C252.177 196.116 249.36 183.949 249.027 179.116L231.902 171.74L224.777 201.116H255.777Z" fill="#FC909F" stroke="black"/>
<mask id="mask4_846_15791" style="mask-type:alpha" maskUnits="userSpaceOnUse" x="224" y="171" width="32" height="31">
<path d="M255.777 201.116C252.177 196.116 249.36 183.949 249.027 179.116L231.902 171.74L224.777 201.116H255.777Z" fill="#FFEDEF"/>
</mask>
<g mask="url(#mask4_846_15791)">
<ellipse cx="248.286" cy="171.25" rx="14.75" ry="13.5" fill="black"/>
</g>
<g clip-path="url(#clip2_846_15791)">
<path d="M255.786 198.625C252.186 193.625 249.369 183.959 249.036 179.125L231.911 171.75L224.786 198.625H255.786Z" fill="#F9C9B6" stroke="black"/>
<mask id="mask5_846_15791" style="mask-type:alpha" maskUnits="userSpaceOnUse" x="224" y="171" width="456" height="432">
<path d="M679.017 602.173C626.268 528.909 584.996 350.636 580.112 279.815L329.186 171.75L224.786 602.173H679.017Z" fill="#F9C9B6"/>
</mask>
<g mask="url(#mask5_846_15791)">
<g style="mix-blend-mode:multiply">
<ellipse cx="248.286" cy="171.25" rx="14.75" ry="13.5" fill="black"/>
</g>
</g>
<mask id="path-42-inside-2_846_15791" fill="white">
<path fill-rule="evenodd" clip-rule="evenodd" d="M263.257 156.479C263.25 156.45 263.243 156.421 263.237 156.393C263.23 156.364 263.223 156.335 263.216 156.306L259.111 139.175C259.109 139.165 259.106 139.155 259.104 139.146C259.102 139.136 259.1 139.126 259.097 139.117L259.074 139.019L259.073 139.019C256.519 128.658 246.075 122.287 235.681 124.777C225.288 127.267 218.865 137.68 221.283 148.073L221.282 148.074L221.313 148.2L225.53 165.803L225.534 165.802C228.184 176.028 238.551 182.287 248.868 179.816C259.185 177.344 265.59 167.066 263.319 156.749L263.322 156.748L263.257 156.479Z"/>
</mask>
<path fill-rule="evenodd" clip-rule="evenodd" d="M263.257 156.479C263.25 156.45 263.243 156.421 263.237 156.393C263.23 156.364 263.223 156.335 263.216 156.306L259.111 139.175C259.109 139.165 259.106 139.155 259.104 139.146C259.102 139.136 259.1 139.126 259.097 139.117L259.074 139.019L259.073 139.019C256.519 128.658 246.075 122.287 235.681 124.777C225.288 127.267 218.865 137.68 221.283 148.073L221.282 148.074L221.313 148.2L225.53 165.803L225.534 165.802C228.184 176.028 238.551 182.287 248.868 179.816C259.185 177.344 265.59 167.066 263.319 156.749L263.322 156.748L263.257 156.479Z" fill="#F9C9B6"/>
<path d="M263.257 156.479L262.283 156.707L262.285 156.712L263.257 156.479ZM263.216 156.306L262.243 156.539L262.244 156.544L263.216 156.306ZM259.111 139.175L258.138 139.406L258.139 139.408L259.111 139.175ZM259.104 139.146L260.077 138.913L260.077 138.913L259.104 139.146ZM259.097 139.117L258.125 139.35L258.125 139.351L259.097 139.117ZM259.074 139.019L260.046 138.786L259.813 137.813L258.84 138.047L259.074 139.019ZM259.073 139.019L258.102 139.258L258.34 140.224L259.307 139.991L259.073 139.019ZM235.681 124.777L235.448 123.805L235.681 124.777ZM221.283 148.073L221.517 149.046L222.482 148.814L222.257 147.847L221.283 148.073ZM221.282 148.074L221.048 147.101L220.077 147.335L220.31 148.307L221.282 148.074ZM221.313 148.2L222.285 147.967L222.285 147.967L221.313 148.2ZM225.53 165.803L224.558 166.036L224.791 167.008L225.763 166.776L225.53 165.803ZM225.534 165.802L226.502 165.551L226.255 164.601L225.301 164.83L225.534 165.802ZM248.868 179.816L248.635 178.843H248.635L248.868 179.816ZM263.319 156.749L263.086 155.777L262.131 156.005L262.342 156.964L263.319 156.749ZM263.322 156.748L263.554 157.721L264.527 157.488L264.294 156.515L263.322 156.748ZM264.231 156.25C264.223 156.22 264.216 156.19 264.209 156.159L262.264 156.626C262.271 156.653 262.277 156.68 262.283 156.707L264.231 156.25ZM264.209 156.159C264.202 156.129 264.194 156.099 264.187 156.069L262.244 156.544C262.251 156.571 262.257 156.598 262.264 156.626L264.209 156.159ZM258.139 139.408L262.243 156.539L264.188 156.073L260.084 138.942L258.139 139.408ZM260.084 138.943C260.081 138.933 260.079 138.923 260.077 138.913L258.132 139.379C258.134 139.388 258.136 139.397 258.138 139.406L260.084 138.943ZM260.077 138.913C260.074 138.903 260.072 138.892 260.069 138.882L258.125 139.351C258.127 139.361 258.13 139.37 258.132 139.379L260.077 138.913ZM258.101 139.252L258.125 139.35L260.07 138.884L260.046 138.786L258.101 139.252ZM259.307 139.991L259.307 139.991L258.84 138.047L258.84 138.047L259.307 139.991ZM260.044 138.78C257.358 127.885 246.377 121.186 235.448 123.805L235.914 125.75C245.773 123.388 255.679 129.431 258.102 139.258L260.044 138.78ZM235.448 123.805C224.52 126.423 217.766 137.371 220.309 148.3L222.257 147.847C219.963 137.988 226.056 128.112 235.914 125.75L235.448 123.805ZM221.516 149.046L221.517 149.046L221.049 147.101L221.048 147.101L221.516 149.046ZM222.285 147.967L222.255 147.84L220.31 148.307L220.34 148.433L222.285 147.967ZM226.503 165.57L222.285 147.967L220.34 148.433L224.558 166.036L226.503 165.57ZM225.301 164.83L225.298 164.83L225.763 166.776L225.766 166.775L225.301 164.83ZM224.566 166.053C227.353 176.806 238.253 183.387 249.101 180.788L248.635 178.843C238.849 181.188 229.016 175.251 226.502 165.551L224.566 166.053ZM249.101 180.788C259.949 178.189 266.683 167.383 264.295 156.534L262.342 156.964C264.496 166.75 258.421 176.498 248.635 178.843L249.101 180.788ZM263.089 155.776L263.086 155.777L263.551 157.722L263.554 157.721L263.089 155.776ZM262.285 156.712L262.349 156.981L264.294 156.515L264.229 156.246L262.285 156.712Z" fill="black" mask="url(#path-42-inside-2_846_15791)"/>
</g>
<path d="M239.661 163.125C240.286 167.375 247.411 169.375 253.911 164.5" stroke="black"/>
<path d="M249.536 141.054C250.952 140.387 254.286 139.779 256.286 142.679" stroke="black" stroke-linecap="round"/>
<path d="M230.68 147.38C231.198 145.903 233.101 143.099 236.571 143.706" stroke="black" stroke-linecap="round"/>
<path d="M240.483 120.122L240.502 120.124L240.521 120.125C247.188 120.321 252.371 122.974 256.039 126.212C259.553 129.315 261.651 132.931 262.336 135.395C261.321 135.975 259.582 136.473 257.364 136.882C254.945 137.328 252.041 137.654 249.078 137.886C243.151 138.35 237.03 138.437 234.171 138.375L232.653 138.342L233.855 139.271C234.479 139.753 235.31 140.089 236.189 140.325C237.075 140.563 238.044 140.709 238.972 140.792C239.928 140.877 240.86 140.897 241.632 140.878C238.986 142.918 235.617 144.487 232.295 145.65C228.459 146.993 224.728 147.78 222.338 148.13L221.801 148.209L221.923 148.738C222.76 152.345 224.299 158.651 225.33 162.88C225.788 164.756 226.146 166.224 226.299 166.866C226.57 168.004 227.424 169.627 228.398 171.123C229.296 172.502 230.344 173.845 231.228 174.672L229.269 182.625H221.878C223.963 179.447 224.403 175.774 223.978 171.879C223.518 167.663 222.037 163.128 220.477 158.588C220.323 158.14 220.169 157.693 220.015 157.246C218.594 153.132 217.177 149.028 216.409 145.096C215.559 140.74 215.521 136.663 217.117 133.078C219.702 127.275 224.284 123.905 228.867 122.048C233.461 120.186 238.022 119.86 240.483 120.122Z" fill="white" stroke="black"/>
<ellipse cx="236.827" cy="149.988" rx="2.25" ry="2.5" transform="rotate(-6.77646 236.827 149.988)" fill="black"/>
<ellipse cx="252.834" cy="147.487" rx="2.25" ry="2.5" transform="rotate(-6.27568 252.834 147.487)" fill="black"/>
<path d="M245.592 150.252C246.079 153.718 248.195 156.198 248.195 156.198C248.195 156.198 247.537 157.805 244.992 157.658" stroke="black"/>
<path d="M227.402 162.278L227.536 162.134V161.938V153.562V153.283L227.297 153.136C226.364 152.563 225.229 152.25 224.056 152.25C222.646 152.25 221.325 152.687 220.385 153.574C219.434 154.471 218.921 155.782 219.057 157.417C219.19 159.009 219.725 160.182 220.612 160.961C220.539 161.211 220.517 161.48 220.551 161.763C220.649 162.58 221.062 163.169 221.7 163.532C222.308 163.878 223.087 164 223.917 164C225.286 164 226.488 163.263 227.402 162.278Z" stroke="#162534"/>
<path fill-rule="evenodd" clip-rule="evenodd" d="M229.029 157.495C229.047 157.333 229.056 157.167 229.056 157C229.056 154.446 226.679 152.75 224.056 152.75C221.432 152.75 219.306 154.375 219.556 157.375C219.695 159.044 220.292 160.143 221.218 160.804C221.071 161.06 221.007 161.361 221.048 161.704C221.205 163.025 222.332 163.5 223.917 163.5C226.693 163.5 228.89 159.988 229.029 157.495Z" fill="#F9C9B6"/>
<path d="M225.161 154.875C224.161 154.417 221.961 154.175 221.161 156.875" stroke="black"/>
<path d="M222.536 155C223.077 155.458 224.111 156.875 223.911 158.875" stroke="black"/>
<path d="M252.174 190.612L252.209 190.62L252.245 190.623C263.776 191.574 270.691 196.696 275.709 203.75H207.379C211.454 196.415 217.25 191.746 226.647 189.603C230.65 188.69 235.314 188.235 240.786 188.235C243.15 188.235 244.989 188.596 246.735 189.071C247.381 189.248 248.031 189.445 248.696 189.647C249.797 189.982 250.938 190.329 252.174 190.612Z" fill="#77311D" stroke="black"/>
<path d="M223.768 190.146L226.057 185.246C226.111 185.129 226.247 185.074 226.369 185.117C235.85 188.473 244.476 188.237 252.47 186.011C252.57 185.983 252.678 186.021 252.739 186.105L256.222 190.868C256.318 190.999 256.269 191.183 256.118 191.243C247.717 194.542 231.951 193.981 223.889 190.476C223.762 190.421 223.709 190.272 223.768 190.146Z" fill="white" stroke="black"/>
</g>
<circle cx="187.152" cy="250.5" r="47.5" fill="#0088EF"/>
<circle cx="187.152" cy="250.5" r="47.5" fill="url(#paint5_linear_846_15791)"/>
<mask id="mask6_846_15791" style="mask-type:alpha" maskUnits="userSpaceOnUse" x="139" y="203" width="96" height="95">
<circle cx="187.152" cy="250.5" r="47.5" fill="#FFEDEF"/>
</mask>
<g mask="url(#mask6_846_15791)">
<g clip-path="url(#clip3_846_15791)">
<path d="M200.652 293.625C197.052 288.625 194.235 278.959 193.902 274.125L176.777 266.75L169.652 293.625H200.652Z" fill="#F9C9B6" stroke="black"/>
<mask id="mask7_846_15791" style="mask-type:alpha" maskUnits="userSpaceOnUse" x="169" y="266" width="455" height="432">
<path d="M623.883 697.173C571.134 623.909 529.862 445.636 524.978 374.815L274.052 266.75L169.652 697.173H623.883Z" fill="#AC6651"/>
</mask>
<g mask="url(#mask7_846_15791)">
<g style="mix-blend-mode:multiply">
<ellipse cx="193.152" cy="266.25" rx="14.75" ry="13.5" fill="black"/>
</g>
</g>
<mask id="path-62-inside-3_846_15791" fill="white">
<path fill-rule="evenodd" clip-rule="evenodd" d="M208.121 251.468C208.115 251.443 208.109 251.418 208.103 251.393C208.097 251.368 208.091 251.343 208.085 251.318L203.983 234.197C203.979 234.18 203.974 234.163 203.97 234.146C203.966 234.129 203.962 234.112 203.958 234.095L203.94 234.019L203.94 234.019C201.385 223.658 190.941 217.287 180.547 219.778C170.154 222.268 163.731 232.68 166.149 243.074L166.148 243.074L170.396 260.803L170.4 260.802C173.05 271.029 183.417 277.288 193.734 274.816C204.051 272.344 210.456 262.067 208.185 251.749L208.188 251.749L208.121 251.468Z"/>
</mask>
<path fill-rule="evenodd" clip-rule="evenodd" d="M208.121 251.468C208.115 251.443 208.109 251.418 208.103 251.393C208.097 251.368 208.091 251.343 208.085 251.318L203.983 234.197C203.979 234.18 203.974 234.163 203.97 234.146C203.966 234.129 203.962 234.112 203.958 234.095L203.94 234.019L203.94 234.019C201.385 223.658 190.941 217.287 180.547 219.778C170.154 222.268 163.731 232.68 166.149 243.074L166.148 243.074L170.396 260.803L170.4 260.802C173.05 271.029 183.417 277.288 193.734 274.816C204.051 272.344 210.456 262.067 208.185 251.749L208.188 251.749L208.121 251.468Z" fill="#F9C9B6"/>
<path d="M208.121 251.468L207.147 251.697L207.148 251.701L208.121 251.468ZM208.085 251.318L207.112 251.551L207.113 251.555L208.085 251.318ZM203.983 234.197L203.01 234.428L203.01 234.43L203.983 234.197ZM203.97 234.146L202.998 234.379L202.998 234.379L203.97 234.146ZM203.958 234.095L202.986 234.328L202.986 234.33L203.958 234.095ZM203.94 234.019L204.912 233.786L204.68 232.814L203.707 233.047L203.94 234.019ZM203.94 234.019L202.969 234.259L203.206 235.223L204.172 234.992L203.94 234.019ZM180.547 219.778L180.314 218.805L180.547 219.778ZM166.149 243.074L166.382 244.046L167.348 243.814L167.123 242.847L166.149 243.074ZM166.148 243.074L165.915 242.101L164.943 242.335L165.176 243.307L166.148 243.074ZM170.396 260.803L169.424 261.036L169.657 262.008L170.629 261.776L170.396 260.803ZM170.4 260.802L171.368 260.552L171.121 259.602L170.167 259.83L170.4 260.802ZM193.734 274.816L193.501 273.843L193.734 274.816ZM208.185 251.749L207.952 250.777L206.997 251.006L207.208 251.964L208.185 251.749ZM208.188 251.749L208.421 252.721L209.393 252.488L209.16 251.516L208.188 251.749ZM209.094 251.239C209.088 251.213 209.081 251.186 209.075 251.16L207.13 251.626C207.136 251.65 207.142 251.674 207.147 251.697L209.094 251.239ZM209.075 251.16C209.069 251.134 209.063 251.107 209.056 251.081L207.113 251.555C207.119 251.578 207.124 251.602 207.13 251.626L209.075 251.16ZM203.01 234.43L207.112 251.551L209.057 251.085L204.955 233.964L203.01 234.43ZM204.956 233.967C204.951 233.949 204.947 233.931 204.943 233.913L202.998 234.379C203.002 234.395 203.006 234.412 203.01 234.428L204.956 233.967ZM204.943 233.913C204.939 233.895 204.934 233.877 204.93 233.859L202.986 234.33C202.99 234.346 202.994 234.363 202.998 234.379L204.943 233.913ZM202.967 234.252L202.986 234.328L204.93 233.862L204.912 233.786L202.967 234.252ZM204.172 234.992L204.172 234.992L203.707 233.047L203.707 233.047L204.172 234.992ZM204.911 233.78C202.224 222.885 191.243 216.187 180.314 218.805L180.78 220.75C190.639 218.388 200.546 224.431 202.969 234.259L204.911 233.78ZM180.314 218.805C169.386 221.423 162.632 232.371 165.175 243.3L167.123 242.847C164.829 232.988 170.922 223.112 180.78 220.75L180.314 218.805ZM166.382 244.046L166.382 244.046L165.916 242.101L165.915 242.101L166.382 244.046ZM171.369 260.57L167.121 242.841L165.176 243.307L169.424 261.036L171.369 260.57ZM170.167 259.83L170.164 259.831L170.629 261.776L170.632 261.775L170.167 259.83ZM169.432 261.053C172.219 271.806 183.119 278.388 193.967 275.788L193.501 273.843C183.715 276.188 173.882 270.251 171.368 260.552L169.432 261.053ZM193.967 275.788C204.815 273.189 211.55 262.383 209.161 251.534L207.208 251.964C209.362 261.75 203.287 271.499 193.501 273.843L193.967 275.788ZM207.955 250.776L207.952 250.777L208.418 252.722L208.421 252.721L207.955 250.776ZM207.148 251.701L207.215 251.982L209.16 251.516L209.093 251.235L207.148 251.701Z" fill="black" mask="url(#path-62-inside-3_846_15791)"/>
<path d="M178.402 266.575C178.402 266.714 178.29 266.825 178.152 266.825C178.014 266.825 177.902 266.714 177.902 266.575C177.902 266.437 178.014 266.325 178.152 266.325C178.29 266.325 178.402 266.437 178.402 266.575Z" fill="black"/>
<path d="M191.402 268.325C191.402 268.464 191.29 268.575 191.152 268.575C191.014 268.575 190.902 268.464 190.902 268.325C190.902 268.187 191.014 268.075 191.152 268.075C191.29 268.075 191.402 268.187 191.402 268.325Z" fill="black"/>
<path d="M190.402 270.075C190.402 270.214 190.29 270.325 190.152 270.325C190.014 270.325 189.902 270.214 189.902 270.075C189.902 269.937 190.014 269.825 190.152 269.825C190.29 269.825 190.402 269.937 190.402 270.075Z" fill="black"/>
<path d="M195.402 269.575C195.402 269.714 195.29 269.825 195.152 269.825C195.014 269.825 194.902 269.714 194.902 269.575C194.902 269.437 195.014 269.325 195.152 269.325C195.29 269.325 195.402 269.437 195.402 269.575Z" fill="black"/>
<path d="M195.652 267.075C195.652 267.214 195.54 267.325 195.402 267.325C195.264 267.325 195.152 267.214 195.152 267.075C195.152 266.937 195.264 266.825 195.402 266.825C195.54 266.825 195.652 266.937 195.652 267.075Z" fill="black"/>
<path d="M200.652 268.325C200.652 268.464 200.54 268.575 200.402 268.575C200.264 268.575 200.152 268.464 200.152 268.325C200.152 268.187 200.264 268.075 200.402 268.075C200.54 268.075 200.652 268.187 200.652 268.325Z" fill="black"/>
<path d="M203.152 264.825C203.152 264.964 203.04 265.075 202.902 265.075C202.764 265.075 202.652 264.964 202.652 264.825C202.652 264.687 202.764 264.575 202.902 264.575C203.04 264.575 203.152 264.687 203.152 264.825Z" fill="black"/>
<path d="M175.902 261.325C175.902 261.464 175.79 261.575 175.652 261.575C175.514 261.575 175.402 261.464 175.402 261.325C175.402 261.187 175.514 261.075 175.652 261.075C175.79 261.075 175.902 261.187 175.902 261.325Z" fill="black"/>
<path d="M184.152 265.325C184.152 265.464 184.04 265.575 183.902 265.575C183.764 265.575 183.652 265.464 183.652 265.325C183.652 265.187 183.764 265.075 183.902 265.075C184.04 265.075 184.152 265.187 184.152 265.325Z" fill="black"/>
<path d="M183.402 270.325C183.402 270.464 183.29 270.575 183.152 270.575C183.014 270.575 182.902 270.464 182.902 270.325C182.902 270.187 183.014 270.075 183.152 270.075C183.29 270.075 183.402 270.187 183.402 270.325Z" fill="black"/>
<path d="M187.902 271.325C187.902 271.464 187.79 271.575 187.652 271.575C187.514 271.575 187.402 271.464 187.402 271.325C187.402 271.187 187.514 271.075 187.652 271.075C187.79 271.075 187.902 271.187 187.902 271.325Z" fill="black"/>
<path d="M196.402 264.825C196.402 264.964 196.29 265.075 196.152 265.075C196.014 265.075 195.902 264.964 195.902 264.825C195.902 264.687 196.014 264.575 196.152 264.575C196.29 264.575 196.402 264.687 196.402 264.825Z" fill="black"/>
<path d="M199.902 265.825C199.902 265.964 199.79 266.075 199.652 266.075C199.514 266.075 199.402 265.964 199.402 265.825C199.402 265.687 199.514 265.575 199.652 265.575C199.79 265.575 199.902 265.687 199.902 265.825Z" fill="black"/>
<path d="M197.902 270.075C197.902 270.214 197.79 270.325 197.652 270.325C197.514 270.325 197.402 270.214 197.402 270.075C197.402 269.937 197.514 269.825 197.652 269.825C197.79 269.825 197.902 269.937 197.902 270.075Z" fill="black"/>
<path d="M201.402 262.325C201.402 262.464 201.29 262.575 201.152 262.575C201.014 262.575 200.902 262.464 200.902 262.325C200.902 262.187 201.014 262.075 201.152 262.075C201.29 262.075 201.402 262.187 201.402 262.325Z" fill="black"/>
<path d="M178.152 262.825C178.152 262.964 178.04 263.075 177.902 263.075C177.764 263.075 177.652 262.964 177.652 262.825C177.652 262.687 177.764 262.575 177.902 262.575C178.04 262.575 178.152 262.687 178.152 262.825Z" fill="black"/>
<path d="M184.152 262.825C184.152 262.964 184.04 263.075 183.902 263.075C183.764 263.075 183.652 262.964 183.652 262.825C183.652 262.687 183.764 262.575 183.902 262.575C184.04 262.575 184.152 262.687 184.152 262.825Z" fill="black"/>
<path d="M184.152 258.325C184.152 258.464 184.04 258.575 183.902 258.575C183.764 258.575 183.652 258.464 183.652 258.325C183.652 258.187 183.764 258.075 183.902 258.075C184.04 258.075 184.152 258.187 184.152 258.325Z" fill="black"/>
<path d="M185.152 271.825C185.152 271.964 185.04 272.075 184.902 272.075C184.764 272.075 184.652 271.964 184.652 271.825C184.652 271.687 184.764 271.575 184.902 271.575C185.04 271.575 185.152 271.687 185.152 271.825Z" fill="black"/>
<path d="M191.902 271.825C191.902 271.964 191.79 272.075 191.652 272.075C191.514 272.075 191.402 271.964 191.402 271.825C191.402 271.687 191.514 271.575 191.652 271.575C191.79 271.575 191.902 271.687 191.902 271.825Z" fill="black"/>
<path d="M194.652 271.825C194.652 271.964 194.54 272.075 194.402 272.075C194.264 272.075 194.152 271.964 194.152 271.825C194.152 271.687 194.264 271.575 194.402 271.575C194.54 271.575 194.652 271.687 194.652 271.825Z" fill="black"/>
<path d="M198.902 262.825C198.902 262.964 198.79 263.075 198.652 263.075C198.514 263.075 198.402 262.964 198.402 262.825C198.402 262.687 198.514 262.575 198.652 262.575C198.79 262.575 198.902 262.687 198.902 262.825Z" fill="black"/>
<path d="M198.902 258.325C198.902 258.464 198.79 258.575 198.652 258.575C198.514 258.575 198.402 258.464 198.402 258.325C198.402 258.187 198.514 258.075 198.652 258.075C198.79 258.075 198.902 258.187 198.902 258.325Z" fill="black"/>
<path d="M203.902 261.575C203.902 261.714 203.79 261.825 203.652 261.825C203.514 261.825 203.402 261.714 203.402 261.575C203.402 261.437 203.514 261.325 203.652 261.325C203.79 261.325 203.902 261.437 203.902 261.575Z" fill="black"/>
<path d="M178.902 259.575C178.902 259.714 178.79 259.825 178.652 259.825C178.514 259.825 178.402 259.714 178.402 259.575C178.402 259.437 178.514 259.325 178.652 259.325C178.79 259.325 178.902 259.437 178.902 259.575Z" fill="black"/>
<path d="M181.402 268.325C181.402 268.464 181.29 268.575 181.152 268.575C181.014 268.575 180.902 268.464 180.902 268.325C180.902 268.187 181.014 268.075 181.152 268.075C181.29 268.075 181.402 268.187 181.402 268.325Z" fill="black"/>
<path d="M180.402 270.075C180.402 270.214 180.29 270.325 180.152 270.325C180.014 270.325 179.902 270.214 179.902 270.075C179.902 269.937 180.014 269.825 180.152 269.825C180.29 269.825 180.402 269.937 180.402 270.075Z" fill="black"/>
<path d="M190.402 265.075C190.402 265.214 190.29 265.325 190.152 265.325C190.014 265.325 189.902 265.214 189.902 265.075C189.902 264.937 190.014 264.825 190.152 264.825C190.29 264.825 190.402 264.937 190.402 265.075Z" fill="black"/>
<path d="M193.402 265.575C193.402 265.714 193.29 265.825 193.152 265.825C193.014 265.825 192.902 265.714 192.902 265.575C192.902 265.437 193.014 265.325 193.152 265.325C193.29 265.325 193.402 265.437 193.402 265.575Z" fill="black"/>
<path d="M189.902 273.075C189.902 273.214 189.79 273.325 189.652 273.325C189.514 273.325 189.402 273.214 189.402 273.075C189.402 272.937 189.514 272.825 189.652 272.825C189.79 272.825 189.902 272.937 189.902 273.075Z" fill="black"/>
<path d="M195.652 260.325C195.652 260.464 195.54 260.575 195.402 260.575C195.264 260.575 195.152 260.464 195.152 260.325C195.152 260.187 195.264 260.075 195.402 260.075C195.54 260.075 195.652 260.187 195.652 260.325Z" fill="black"/>
<path d="M195.652 255.825C195.652 255.964 195.54 256.075 195.402 256.075C195.264 256.075 195.152 255.964 195.152 255.825C195.152 255.687 195.264 255.575 195.402 255.575C195.54 255.575 195.652 255.687 195.652 255.825Z" fill="black"/>
<path d="M201.652 259.575C201.652 259.714 201.54 259.825 201.402 259.825C201.264 259.825 201.152 259.714 201.152 259.575C201.152 259.437 201.264 259.325 201.402 259.325C201.54 259.325 201.652 259.437 201.652 259.575Z" fill="black"/>
<path d="M203.402 257.075C203.402 257.214 203.29 257.325 203.152 257.325C203.014 257.325 202.902 257.214 202.902 257.075C202.902 256.937 203.014 256.825 203.152 256.825C203.29 256.825 203.402 256.937 203.402 257.075Z" fill="black"/>
<path d="M181.152 261.825C181.152 261.964 181.04 262.075 180.902 262.075C180.764 262.075 180.652 261.964 180.652 261.825C180.652 261.687 180.764 261.575 180.902 261.575C181.04 261.575 181.152 261.687 181.152 261.825Z" fill="black"/>
<path d="M181.152 264.575C181.152 264.714 181.04 264.825 180.902 264.825C180.764 264.825 180.652 264.714 180.652 264.575C180.652 264.437 180.764 264.325 180.902 264.325C181.04 264.325 181.152 264.437 181.152 264.575Z" fill="black"/>
<path d="M186.402 260.825C186.402 260.964 186.29 261.075 186.152 261.075C186.014 261.075 185.902 260.964 185.902 260.825C185.902 260.687 186.014 260.575 186.152 260.575C186.29 260.575 186.402 260.687 186.402 260.825Z" fill="black"/>
<path d="M186.402 256.325C186.402 256.464 186.29 256.575 186.152 256.575C186.014 256.575 185.902 256.464 185.902 256.325C185.902 256.187 186.014 256.075 186.152 256.075C186.29 256.075 186.402 256.187 186.402 256.325Z" fill="black"/>
<path d="M189.402 259.825C189.402 259.964 189.29 260.075 189.152 260.075C189.014 260.075 188.902 259.964 188.902 259.825C188.902 259.687 189.014 259.575 189.152 259.575C189.29 259.575 189.402 259.687 189.402 259.825Z" fill="black"/>
<path d="M192.402 258.325C192.402 258.464 192.29 258.575 192.152 258.575C192.014 258.575 191.902 258.464 191.902 258.325C191.902 258.187 192.014 258.075 192.152 258.075C192.29 258.075 192.402 258.187 192.402 258.325Z" fill="black"/>
<path d="M195.652 258.325C195.652 258.464 195.54 258.575 195.402 258.575C195.264 258.575 195.152 258.464 195.152 258.325C195.152 258.187 195.264 258.075 195.402 258.075C195.54 258.075 195.652 258.187 195.652 258.325Z" fill="black"/>
<path d="M198.902 258.325C198.902 258.464 198.79 258.575 198.652 258.575C198.514 258.575 198.402 258.464 198.402 258.325C198.402 258.187 198.514 258.075 198.652 258.075C198.79 258.075 198.902 258.187 198.902 258.325Z" fill="black"/>
<path d="M205.402 258.325C205.402 258.464 205.29 258.575 205.152 258.575C205.014 258.575 204.902 258.464 204.902 258.325C204.902 258.187 205.014 258.075 205.152 258.075C205.29 258.075 205.402 258.187 205.402 258.325Z" fill="black"/>
<path d="M185.902 268.325C185.902 268.464 185.79 268.575 185.652 268.575C185.514 268.575 185.402 268.464 185.402 268.325C185.402 268.187 185.514 268.075 185.652 268.075C185.79 268.075 185.902 268.187 185.902 268.325Z" fill="black"/>
<path d="M188.652 266.825C188.652 266.964 188.54 267.075 188.402 267.075C188.264 267.075 188.152 266.964 188.152 266.825C188.152 266.687 188.264 266.575 188.402 266.575C188.54 266.575 188.652 266.687 188.652 266.825Z" fill="black"/>
<path d="M187.652 264.825C187.652 264.964 187.54 265.075 187.402 265.075C187.264 265.075 187.152 264.964 187.152 264.825C187.152 264.687 187.264 264.575 187.402 264.575C187.54 264.575 187.652 264.687 187.652 264.825Z" fill="black"/>
<path d="M193.652 262.575C193.652 262.714 193.54 262.825 193.402 262.825C193.264 262.825 193.152 262.714 193.152 262.575C193.152 262.437 193.264 262.325 193.402 262.325C193.54 262.325 193.652 262.437 193.652 262.575Z" fill="black"/>
<path d="M181.402 258.075C181.402 258.214 181.29 258.325 181.152 258.325C181.014 258.325 180.902 258.214 180.902 258.075C180.902 257.937 181.014 257.825 181.152 257.825C181.29 257.825 181.402 257.937 181.402 258.075Z" fill="black"/>
<path d="M190.652 262.075C190.652 262.214 190.54 262.325 190.402 262.325C190.264 262.325 190.152 262.214 190.152 262.075C190.152 261.937 190.264 261.825 190.402 261.825C190.54 261.825 190.652 261.937 190.652 262.075Z" fill="black"/>
<path d="M190.652 257.575C190.652 257.714 190.54 257.825 190.402 257.825C190.264 257.825 190.152 257.714 190.152 257.575C190.152 257.437 190.264 257.325 190.402 257.325C190.54 257.325 190.652 257.437 190.652 257.575Z" fill="black"/>
<path d="M199.402 261.075C199.402 261.214 199.29 261.325 199.152 261.325C199.014 261.325 198.902 261.214 198.902 261.075C198.902 260.937 199.014 260.825 199.152 260.825C199.29 260.825 199.402 260.937 199.402 261.075Z" fill="black"/>
<path d="M199.402 256.575C199.402 256.714 199.29 256.825 199.152 256.825C199.014 256.825 198.902 256.714 198.902 256.575C198.902 256.437 199.014 256.325 199.152 256.325C199.29 256.325 199.402 256.437 199.402 256.575Z" fill="black"/>
<path d="M201.152 257.075C201.152 257.214 201.04 257.325 200.902 257.325C200.764 257.325 200.652 257.214 200.652 257.075C200.652 256.937 200.764 256.825 200.902 256.825C201.04 256.825 201.152 256.937 201.152 257.075Z" fill="black"/>
<path d="M204.902 254.825C204.902 254.964 204.79 255.075 204.652 255.075C204.514 255.075 204.402 254.964 204.402 254.825C204.402 254.687 204.514 254.575 204.652 254.575C204.79 254.575 204.902 254.687 204.902 254.825Z" fill="black"/>
<path d="M178.402 266.575C178.402 266.714 178.29 266.825 178.152 266.825C178.014 266.825 177.902 266.714 177.902 266.575C177.902 266.437 178.014 266.325 178.152 266.325C178.29 266.325 178.402 266.437 178.402 266.575Z" stroke="black" stroke-width="0.25"/>
<path d="M191.402 268.325C191.402 268.464 191.29 268.575 191.152 268.575C191.014 268.575 190.902 268.464 190.902 268.325C190.902 268.187 191.014 268.075 191.152 268.075C191.29 268.075 191.402 268.187 191.402 268.325Z" stroke="black" stroke-width="0.25"/>
<path d="M190.402 270.075C190.402 270.214 190.29 270.325 190.152 270.325C190.014 270.325 189.902 270.214 189.902 270.075C189.902 269.937 190.014 269.825 190.152 269.825C190.29 269.825 190.402 269.937 190.402 270.075Z" stroke="black" stroke-width="0.25"/>
<path d="M195.402 269.575C195.402 269.714 195.29 269.825 195.152 269.825C195.014 269.825 194.902 269.714 194.902 269.575C194.902 269.437 195.014 269.325 195.152 269.325C195.29 269.325 195.402 269.437 195.402 269.575Z" stroke="black" stroke-width="0.25"/>
<path d="M195.652 267.075C195.652 267.214 195.54 267.325 195.402 267.325C195.264 267.325 195.152 267.214 195.152 267.075C195.152 266.937 195.264 266.825 195.402 266.825C195.54 266.825 195.652 266.937 195.652 267.075Z" stroke="black" stroke-width="0.25"/>
<path d="M200.652 268.325C200.652 268.464 200.54 268.575 200.402 268.575C200.264 268.575 200.152 268.464 200.152 268.325C200.152 268.187 200.264 268.075 200.402 268.075C200.54 268.075 200.652 268.187 200.652 268.325Z" stroke="black" stroke-width="0.25"/>
<path d="M203.152 264.825C203.152 264.964 203.04 265.075 202.902 265.075C202.764 265.075 202.652 264.964 202.652 264.825C202.652 264.687 202.764 264.575 202.902 264.575C203.04 264.575 203.152 264.687 203.152 264.825Z" stroke="black" stroke-width="0.25"/>
<path d="M175.902 261.325C175.902 261.464 175.79 261.575 175.652 261.575C175.514 261.575 175.402 261.464 175.402 261.325C175.402 261.187 175.514 261.075 175.652 261.075C175.79 261.075 175.902 261.187 175.902 261.325Z" stroke="black" stroke-width="0.25"/>
<path d="M184.152 265.325C184.152 265.464 184.04 265.575 183.902 265.575C183.764 265.575 183.652 265.464 183.652 265.325C183.652 265.187 183.764 265.075 183.902 265.075C184.04 265.075 184.152 265.187 184.152 265.325Z" stroke="black" stroke-width="0.25"/>
<path d="M183.402 270.325C183.402 270.464 183.29 270.575 183.152 270.575C183.014 270.575 182.902 270.464 182.902 270.325C182.902 270.187 183.014 270.075 183.152 270.075C183.29 270.075 183.402 270.187 183.402 270.325Z" stroke="black" stroke-width="0.25"/>
<path d="M187.902 271.325C187.902 271.464 187.79 271.575 187.652 271.575C187.514 271.575 187.402 271.464 187.402 271.325C187.402 271.187 187.514 271.075 187.652 271.075C187.79 271.075 187.902 271.187 187.902 271.325Z" stroke="black" stroke-width="0.25"/>
<path d="M196.402 264.825C196.402 264.964 196.29 265.075 196.152 265.075C196.014 265.075 195.902 264.964 195.902 264.825C195.902 264.687 196.014 264.575 196.152 264.575C196.29 264.575 196.402 264.687 196.402 264.825Z" stroke="black" stroke-width="0.25"/>
<path d="M199.902 265.825C199.902 265.964 199.79 266.075 199.652 266.075C199.514 266.075 199.402 265.964 199.402 265.825C199.402 265.687 199.514 265.575 199.652 265.575C199.79 265.575 199.902 265.687 199.902 265.825Z" stroke="black" stroke-width="0.25"/>
<path d="M197.902 270.075C197.902 270.214 197.79 270.325 197.652 270.325C197.514 270.325 197.402 270.214 197.402 270.075C197.402 269.937 197.514 269.825 197.652 269.825C197.79 269.825 197.902 269.937 197.902 270.075Z" stroke="black" stroke-width="0.25"/>
<path d="M201.402 262.325C201.402 262.464 201.29 262.575 201.152 262.575C201.014 262.575 200.902 262.464 200.902 262.325C200.902 262.187 201.014 262.075 201.152 262.075C201.29 262.075 201.402 262.187 201.402 262.325Z" stroke="black" stroke-width="0.25"/>
<path d="M178.152 262.825C178.152 262.964 178.04 263.075 177.902 263.075C177.764 263.075 177.652 262.964 177.652 262.825C177.652 262.687 177.764 262.575 177.902 262.575C178.04 262.575 178.152 262.687 178.152 262.825Z" stroke="black" stroke-width="0.25"/>
<path d="M184.152 262.825C184.152 262.964 184.04 263.075 183.902 263.075C183.764 263.075 183.652 262.964 183.652 262.825C183.652 262.687 183.764 262.575 183.902 262.575C184.04 262.575 184.152 262.687 184.152 262.825Z" stroke="black" stroke-width="0.25"/>
<path d="M184.152 258.325C184.152 258.464 184.04 258.575 183.902 258.575C183.764 258.575 183.652 258.464 183.652 258.325C183.652 258.187 183.764 258.075 183.902 258.075C184.04 258.075 184.152 258.187 184.152 258.325Z" stroke="black" stroke-width="0.25"/>
<path d="M185.152 271.825C185.152 271.964 185.04 272.075 184.902 272.075C184.764 272.075 184.652 271.964 184.652 271.825C184.652 271.687 184.764 271.575 184.902 271.575C185.04 271.575 185.152 271.687 185.152 271.825Z" stroke="black" stroke-width="0.25"/>
<path d="M191.902 271.825C191.902 271.964 191.79 272.075 191.652 272.075C191.514 272.075 191.402 271.964 191.402 271.825C191.402 271.687 191.514 271.575 191.652 271.575C191.79 271.575 191.902 271.687 191.902 271.825Z" stroke="black" stroke-width="0.25"/>
<path d="M194.652 271.825C194.652 271.964 194.54 272.075 194.402 272.075C194.264 272.075 194.152 271.964 194.152 271.825C194.152 271.687 194.264 271.575 194.402 271.575C194.54 271.575 194.652 271.687 194.652 271.825Z" stroke="black" stroke-width="0.25"/>
<path d="M198.902 262.825C198.902 262.964 198.79 263.075 198.652 263.075C198.514 263.075 198.402 262.964 198.402 262.825C198.402 262.687 198.514 262.575 198.652 262.575C198.79 262.575 198.902 262.687 198.902 262.825Z" stroke="black" stroke-width="0.25"/>
<path d="M198.902 258.325C198.902 258.464 198.79 258.575 198.652 258.575C198.514 258.575 198.402 258.464 198.402 258.325C198.402 258.187 198.514 258.075 198.652 258.075C198.79 258.075 198.902 258.187 198.902 258.325Z" stroke="black" stroke-width="0.25"/>
<path d="M203.902 261.575C203.902 261.714 203.79 261.825 203.652 261.825C203.514 261.825 203.402 261.714 203.402 261.575C203.402 261.437 203.514 261.325 203.652 261.325C203.79 261.325 203.902 261.437 203.902 261.575Z" stroke="black" stroke-width="0.25"/>
<path d="M178.902 259.575C178.902 259.714 178.79 259.825 178.652 259.825C178.514 259.825 178.402 259.714 178.402 259.575C178.402 259.437 178.514 259.325 178.652 259.325C178.79 259.325 178.902 259.437 178.902 259.575Z" stroke="black" stroke-width="0.25"/>
<path d="M181.402 268.325C181.402 268.464 181.29 268.575 181.152 268.575C181.014 268.575 180.902 268.464 180.902 268.325C180.902 268.187 181.014 268.075 181.152 268.075C181.29 268.075 181.402 268.187 181.402 268.325Z" stroke="black" stroke-width="0.25"/>
<path d="M180.402 270.075C180.402 270.214 180.29 270.325 180.152 270.325C180.014 270.325 179.902 270.214 179.902 270.075C179.902 269.937 180.014 269.825 180.152 269.825C180.29 269.825 180.402 269.937 180.402 270.075Z" stroke="black" stroke-width="0.25"/>
<path d="M190.402 265.075C190.402 265.214 190.29 265.325 190.152 265.325C190.014 265.325 189.902 265.214 189.902 265.075C189.902 264.937 190.014 264.825 190.152 264.825C190.29 264.825 190.402 264.937 190.402 265.075Z" stroke="black" stroke-width="0.25"/>
<path d="M193.402 265.575C193.402 265.714 193.29 265.825 193.152 265.825C193.014 265.825 192.902 265.714 192.902 265.575C192.902 265.437 193.014 265.325 193.152 265.325C193.29 265.325 193.402 265.437 193.402 265.575Z" stroke="black" stroke-width="0.25"/>
<path d="M189.902 273.075C189.902 273.214 189.79 273.325 189.652 273.325C189.514 273.325 189.402 273.214 189.402 273.075C189.402 272.937 189.514 272.825 189.652 272.825C189.79 272.825 189.902 272.937 189.902 273.075Z" stroke="black" stroke-width="0.25"/>
<path d="M195.652 260.325C195.652 260.464 195.54 260.575 195.402 260.575C195.264 260.575 195.152 260.464 195.152 260.325C195.152 260.187 195.264 260.075 195.402 260.075C195.54 260.075 195.652 260.187 195.652 260.325Z" stroke="black" stroke-width="0.25"/>
<path d="M195.652 255.825C195.652 255.964 195.54 256.075 195.402 256.075C195.264 256.075 195.152 255.964 195.152 255.825C195.152 255.687 195.264 255.575 195.402 255.575C195.54 255.575 195.652 255.687 195.652 255.825Z" stroke="black" stroke-width="0.25"/>
<path d="M201.652 259.575C201.652 259.714 201.54 259.825 201.402 259.825C201.264 259.825 201.152 259.714 201.152 259.575C201.152 259.437 201.264 259.325 201.402 259.325C201.54 259.325 201.652 259.437 201.652 259.575Z" stroke="black" stroke-width="0.25"/>
<path d="M203.402 257.075C203.402 257.214 203.29 257.325 203.152 257.325C203.014 257.325 202.902 257.214 202.902 257.075C202.902 256.937 203.014 256.825 203.152 256.825C203.29 256.825 203.402 256.937 203.402 257.075Z" stroke="black" stroke-width="0.25"/>
<path d="M181.152 261.825C181.152 261.964 181.04 262.075 180.902 262.075C180.764 262.075 180.652 261.964 180.652 261.825C180.652 261.687 180.764 261.575 180.902 261.575C181.04 261.575 181.152 261.687 181.152 261.825Z" stroke="black" stroke-width="0.25"/>
<path d="M181.152 264.575C181.152 264.714 181.04 264.825 180.902 264.825C180.764 264.825 180.652 264.714 180.652 264.575C180.652 264.437 180.764 264.325 180.902 264.325C181.04 264.325 181.152 264.437 181.152 264.575Z" stroke="black" stroke-width="0.25"/>
<path d="M186.402 260.825C186.402 260.964 186.29 261.075 186.152 261.075C186.014 261.075 185.902 260.964 185.902 260.825C185.902 260.687 186.014 260.575 186.152 260.575C186.29 260.575 186.402 260.687 186.402 260.825Z" stroke="black" stroke-width="0.25"/>
<path d="M186.402 256.325C186.402 256.464 186.29 256.575 186.152 256.575C186.014 256.575 185.902 256.464 185.902 256.325C185.902 256.187 186.014 256.075 186.152 256.075C186.29 256.075 186.402 256.187 186.402 256.325Z" stroke="black" stroke-width="0.25"/>
<path d="M189.402 259.825C189.402 259.964 189.29 260.075 189.152 260.075C189.014 260.075 188.902 259.964 188.902 259.825C188.902 259.687 189.014 259.575 189.152 259.575C189.29 259.575 189.402 259.687 189.402 259.825Z" stroke="black" stroke-width="0.25"/>
<path d="M192.402 258.325C192.402 258.464 192.29 258.575 192.152 258.575C192.014 258.575 191.902 258.464 191.902 258.325C191.902 258.187 192.014 258.075 192.152 258.075C192.29 258.075 192.402 258.187 192.402 258.325Z" stroke="black" stroke-width="0.25"/>
<path d="M195.652 258.325C195.652 258.464 195.54 258.575 195.402 258.575C195.264 258.575 195.152 258.464 195.152 258.325C195.152 258.187 195.264 258.075 195.402 258.075C195.54 258.075 195.652 258.187 195.652 258.325Z" stroke="black" stroke-width="0.25"/>
<path d="M198.902 258.325C198.902 258.464 198.79 258.575 198.652 258.575C198.514 258.575 198.402 258.464 198.402 258.325C198.402 258.187 198.514 258.075 198.652 258.075C198.79 258.075 198.902 258.187 198.902 258.325Z" stroke="black" stroke-width="0.25"/>
<path d="M205.402 258.325C205.402 258.464 205.29 258.575 205.152 258.575C205.014 258.575 204.902 258.464 204.902 258.325C204.902 258.187 205.014 258.075 205.152 258.075C205.29 258.075 205.402 258.187 205.402 258.325Z" stroke="black" stroke-width="0.25"/>
<path d="M185.902 268.325C185.902 268.464 185.79 268.575 185.652 268.575C185.514 268.575 185.402 268.464 185.402 268.325C185.402 268.187 185.514 268.075 185.652 268.075C185.79 268.075 185.902 268.187 185.902 268.325Z" stroke="black" stroke-width="0.25"/>
<path d="M188.652 266.825C188.652 266.964 188.54 267.075 188.402 267.075C188.264 267.075 188.152 266.964 188.152 266.825C188.152 266.687 188.264 266.575 188.402 266.575C188.54 266.575 188.652 266.687 188.652 266.825Z" stroke="black" stroke-width="0.25"/>
<path d="M187.652 264.825C187.652 264.964 187.54 265.075 187.402 265.075C187.264 265.075 187.152 264.964 187.152 264.825C187.152 264.687 187.264 264.575 187.402 264.575C187.54 264.575 187.652 264.687 187.652 264.825Z" stroke="black" stroke-width="0.25"/>
<path d="M193.652 262.575C193.652 262.714 193.54 262.825 193.402 262.825C193.264 262.825 193.152 262.714 193.152 262.575C193.152 262.437 193.264 262.325 193.402 262.325C193.54 262.325 193.652 262.437 193.652 262.575Z" stroke="black" stroke-width="0.25"/>
<path d="M181.402 258.075C181.402 258.214 181.29 258.325 181.152 258.325C181.014 258.325 180.902 258.214 180.902 258.075C180.902 257.937 181.014 257.825 181.152 257.825C181.29 257.825 181.402 257.937 181.402 258.075Z" stroke="black" stroke-width="0.25"/>
<path d="M190.652 262.075C190.652 262.214 190.54 262.325 190.402 262.325C190.264 262.325 190.152 262.214 190.152 262.075C190.152 261.937 190.264 261.825 190.402 261.825C190.54 261.825 190.652 261.937 190.652 262.075Z" stroke="black" stroke-width="0.25"/>
<path d="M190.652 257.575C190.652 257.714 190.54 257.825 190.402 257.825C190.264 257.825 190.152 257.714 190.152 257.575C190.152 257.437 190.264 257.325 190.402 257.325C190.54 257.325 190.652 257.437 190.652 257.575Z" stroke="black" stroke-width="0.25"/>
<path d="M199.402 261.075C199.402 261.214 199.29 261.325 199.152 261.325C199.014 261.325 198.902 261.214 198.902 261.075C198.902 260.937 199.014 260.825 199.152 260.825C199.29 260.825 199.402 260.937 199.402 261.075Z" stroke="black" stroke-width="0.25"/>
<path d="M199.402 256.575C199.402 256.714 199.29 256.825 199.152 256.825C199.014 256.825 198.902 256.714 198.902 256.575C198.902 256.437 199.014 256.325 199.152 256.325C199.29 256.325 199.402 256.437 199.402 256.575Z" stroke="black" stroke-width="0.25"/>
<path d="M201.152 257.075C201.152 257.214 201.04 257.325 200.902 257.325C200.764 257.325 200.652 257.214 200.652 257.075C200.652 256.937 200.764 256.825 200.902 256.825C201.04 256.825 201.152 256.937 201.152 257.075Z" stroke="black" stroke-width="0.25"/>
<path d="M204.902 254.825C204.902 254.964 204.79 255.075 204.652 255.075C204.514 255.075 204.402 254.964 204.402 254.825C204.402 254.687 204.514 254.575 204.652 254.575C204.79 254.575 204.902 254.687 204.902 254.825Z" stroke="black" stroke-width="0.25"/>
</g>
<rect x="182.964" y="258.118" width="17.5" height="6" rx="1" transform="rotate(-4 182.964 258.118)" fill="black"/>
<path fill-rule="evenodd" clip-rule="evenodd" d="M198.857 257.006L184.528 258.008L184.988 259.76C185.17 260.454 185.819 260.921 186.534 260.875C185.819 260.93 185.242 261.483 185.158 262.196L184.946 263.994L199.276 262.992L198.816 261.241C198.633 260.546 197.985 260.079 197.269 260.125C197.984 260.071 198.561 259.517 198.645 258.805L198.857 257.006Z" fill="white"/>
<path d="M184.169 257.712C183.255 257.646 182.483 258.403 182.547 259.325L182.802 262.967C182.866 263.888 183.736 264.531 184.632 264.338C186.368 263.966 189.687 263.305 192.086 263.137C194.485 262.969 197.864 263.162 199.635 263.289C200.549 263.355 201.321 262.598 201.257 261.676L201.002 258.034C200.938 257.113 200.068 256.47 199.172 256.663C197.436 257.035 194.116 257.696 191.717 257.864C189.319 258.032 185.94 257.839 184.169 257.712Z" stroke="black"/>
<path d="M176.402 240.125C177.944 240.75 181.677 240.875 184.277 236.375" stroke="black" stroke-linecap="round"/>
<path d="M193.152 234.5C194.444 235.834 197.677 237.7 200.277 234.5" stroke="black" stroke-linecap="round"/>
<path d="M189.402 224.75C193.069 224.584 199.502 222.55 195.902 215.75" stroke="#162534"/>
<path d="M182.902 224.25C186.569 224.083 193.002 222.05 189.402 215.25" stroke="#162534"/>
<path d="M173.902 227C177.569 226.834 184.002 224.8 180.402 218" stroke="#162534"/>
<ellipse cx="181.796" cy="245.107" rx="2.25" ry="3.375" transform="rotate(-6.77646 181.796 245.107)" fill="black"/>
<ellipse cx="197.796" cy="242.607" rx="2.25" ry="3.375" transform="rotate(-6.27568 197.796 242.607)" fill="black"/>
<path d="M175.657 245.179L167.402 246.649" stroke="black" stroke-linecap="round"/>
<path d="M174.786 241.748C174.55 240.881 175.124 240.018 176.013 239.902L185.073 238.722C185.895 238.615 186.661 239.192 186.785 240.011L188.051 248.359C188.175 249.178 187.61 249.929 186.788 250.036L178.692 251.091C177.937 251.189 177.215 250.707 177.016 249.97L174.786 241.748Z" stroke="black"/>
<path d="M203.937 237.995C203.905 237.101 203.097 236.419 202.208 236.535L193.148 237.715C192.326 237.822 191.761 238.573 191.885 239.392L193.151 247.74C193.275 248.559 194.041 249.136 194.863 249.029L202.959 247.974C203.714 247.876 204.264 247.228 204.237 246.468L203.937 237.995Z" stroke="black"/>
<path d="M187.381 243.986L192.645 243.21" stroke="black"/>
<path d="M190.458 245.252C190.945 248.718 193.061 251.198 193.061 251.198C193.061 251.198 192.403 252.805 189.858 252.658" stroke="black"/>
<path d="M170.777 248.044C170.194 247.852 169.566 247.75 168.922 247.75C166.299 247.75 164.172 249.375 164.422 252.375C164.682 255.5 166.549 256.625 169.172 256.625C169.464 256.625 169.75 256.599 170.027 256.55C170.329 256.497 170.622 256.415 170.902 256.309" stroke="#162534" stroke-width="2"/>
<path d="M171.027 256.259C170.457 256.495 169.83 256.625 169.172 256.625C166.549 256.625 164.682 255.5 164.422 252.375C164.172 249.375 166.299 247.75 168.922 247.75C169.706 247.75 170.469 247.902 171.152 248.182L171.027 256.259Z" fill="#F9C9B6"/>
<path d="M170.027 249.875C169.027 249.417 166.827 249.175 166.027 251.875" stroke="#162534"/>
<path d="M167.402 250C167.944 250.459 168.977 251.875 168.777 253.875" stroke="#162534"/>
<path d="M197.04 285.613L197.075 285.621L197.111 285.624C208.642 286.575 215.557 291.697 220.575 298.75H152.245C156.32 291.415 162.116 286.746 171.513 284.603C175.516 283.691 180.18 283.235 185.652 283.235C188.016 283.235 189.855 283.596 191.601 284.072C192.248 284.248 192.898 284.445 193.562 284.648C194.663 284.982 195.805 285.329 197.04 285.613Z" fill="#F4D150" stroke="black"/>
<path d="M168.634 285.146L170.923 280.247C170.977 280.13 171.113 280.074 171.235 280.117C180.717 283.473 189.342 283.237 197.336 281.012C197.436 280.984 197.544 281.021 197.606 281.105L201.089 285.868C201.184 285.999 201.136 286.184 200.985 286.243C192.583 289.542 176.818 288.981 168.756 285.477C168.628 285.421 168.575 285.272 168.634 285.146Z" fill="white" stroke="black"/>
</g>
<defs>
<linearGradient id="paint0_linear_846_15791" x1="268.931" y1="144.081" x2="172.041" y2="203.681" gradientUnits="userSpaceOnUse">
<stop stop-color="#00F2FF"/>
<stop offset="1" stop-color="#00E3EF" stop-opacity="0"/>
</linearGradient>
<linearGradient id="paint1_linear_846_15791" x1="209.617" y1="279.659" x2="111.895" y2="339.296" gradientUnits="userSpaceOnUse">
<stop stop-color="#0088EF"/>
<stop offset="1" stop-color="#0088EF" stop-opacity="0"/>
</linearGradient>
<linearGradient id="paint2_linear_846_15791" x1="319.041" y1="246.852" x2="214.304" y2="252.829" gradientUnits="userSpaceOnUse">
<stop stop-color="#0088EF"/>
<stop offset="1" stop-color="#0088EF" stop-opacity="0"/>
</linearGradient>
<linearGradient id="paint3_linear_846_15791" x1="133.714" y1="108" x2="133.714" y2="203" gradientUnits="userSpaceOnUse">
<stop stop-color="#FF2B51"/>
<stop offset="1" stop-color="#FF2B51" stop-opacity="0"/>
</linearGradient>
<linearGradient id="paint4_linear_846_15791" x1="364.519" y1="222.95" x2="277.131" y2="280.492" gradientUnits="userSpaceOnUse">
<stop stop-color="#0088EF"/>
<stop offset="1" stop-color="#FD6727"/>
</linearGradient>
<linearGradient id="paint5_linear_846_15791" x1="140.265" y1="298" x2="236.888" y2="295.668" gradientUnits="userSpaceOnUse">
<stop stop-color="#7B61FF" stop-opacity="0.8"/>
<stop offset="1" stop-color="#7B61FF" stop-opacity="0"/>
</linearGradient>
<clipPath id="clip0_846_15791">
<rect width="287" height="287" fill="white" transform="translate(113.715 0.448975) rotate(23.6798)"/>
</clipPath>
<clipPath id="clip1_846_15791">
<rect width="50" height="80" fill="white" transform="translate(108.714 118.75)"/>
</clipPath>
<clipPath id="clip2_846_15791">
<rect width="50" height="80" fill="white" transform="translate(217.286 118.75)"/>
</clipPath>
<clipPath id="clip3_846_15791">
<rect width="50" height="80" fill="white" transform="translate(162.152 213.75)"/>
</clipPath>
</defs>
</svg>
