<svg width="174" height="64" viewBox="0 0 174 64" fill="none" xmlns="http://www.w3.org/2000/svg">
<g clip-path="url(#clip0_631_14304)">
<path d="M93.1087 42.431L88.9365 36.5121H84.3318V42.431H79.3252V21.1836H88.6893C90.6054 21.1836 92.2639 21.4972 93.665 22.1245C95.0866 22.7518 96.1785 23.6422 96.9409 24.7956C97.7032 25.9491 98.0843 27.315 98.0843 28.8934C98.0843 30.4717 97.6929 31.8376 96.9099 32.9911C96.1476 34.1243 95.0557 34.9944 93.6341 35.6015L98.4861 42.431H93.1087ZM93.016 28.8934C93.016 27.6995 92.6245 26.7888 91.8416 26.1615C91.0587 25.514 89.9152 25.1902 88.4112 25.1902H84.3318V32.5965H88.4112C89.9152 32.5965 91.0587 32.2727 91.8416 31.6252C92.6245 30.9776 93.016 30.067 93.016 28.8934Z" fill="white"/>
<path d="M114.073 42.7952C111.827 42.7952 109.798 42.3197 107.985 41.3686C106.192 40.4176 104.781 39.1124 103.751 37.453C102.741 35.7735 102.236 33.8916 102.236 31.8073C102.236 29.723 102.741 27.8512 103.751 26.1919C104.781 24.5123 106.192 23.197 107.985 22.2459C109.798 21.2949 111.827 20.8193 114.073 20.8193C116.319 20.8193 118.338 21.2949 120.13 22.2459C121.923 23.197 123.334 24.5123 124.364 26.1919C125.394 27.8512 125.909 29.723 125.909 31.8073C125.909 33.8916 125.394 35.7735 124.364 37.453C123.334 39.1124 121.923 40.4176 120.13 41.3686C118.338 42.3197 116.319 42.7952 114.073 42.7952ZM114.073 38.6065C115.35 38.6065 116.504 38.3232 117.534 37.7566C118.564 37.1697 119.368 36.3603 119.945 35.3283C120.542 34.2963 120.841 33.1226 120.841 31.8073C120.841 30.492 120.542 29.3183 119.945 28.2863C119.368 27.2543 118.564 26.455 117.534 25.8884C116.504 25.3015 115.35 25.0081 114.073 25.0081C112.796 25.0081 111.642 25.3015 110.612 25.8884C109.581 26.455 108.768 27.2543 108.17 28.2863C107.593 29.3183 107.305 30.492 107.305 31.8073C107.305 33.1226 107.593 34.2963 108.17 35.3283C108.768 36.3603 109.581 37.1697 110.612 37.7566C111.642 38.3232 112.796 38.6065 114.073 38.6065Z" fill="white"/>
<path d="M131.217 21.1836H136.224V38.4243H147.071V42.431H131.217V21.1836Z" fill="white"/>
<path d="M165.842 37.878H155.798L153.882 42.431H148.752L158.394 21.1836H163.339L173.012 42.431H167.758L165.842 37.878ZM164.266 34.1445L160.836 26.0098L157.405 34.1445H164.266Z" fill="white"/>
<path d="M44.5622 2.58399C42.7133 18.5041 29.1462 30.8629 12.6842 30.8629C8.19034 30.8629 3.91221 29.942 0.0292969 28.279C1.87824 12.3589 15.4453 0 31.9073 0C36.4012 0 40.6793 0.920986 44.5622 2.58399Z" fill="white"/>
<path d="M44.5915 61.4034C40.7008 63.0744 36.4125 64 31.9073 64C15.3553 64 1.72989 51.5055 0 35.4595C3.89068 33.7885 8.17902 32.8629 12.6842 32.8629C29.2362 32.8629 42.8616 45.3574 44.5915 61.4034Z" fill="white"/>
<path d="M50.7849 6.11865C58.7946 11.9371 64.0001 21.3624 64.0001 32C64.0001 42.5545 58.8756 51.9155 50.9721 57.7442C42.9624 51.9258 37.7568 42.5005 37.7568 31.8629C37.7568 21.3084 42.8814 11.9474 50.7849 6.11865Z" fill="white"/>
</g>
<defs>
<clipPath id="clip0_631_14304">
<rect width="173.494" height="64" fill="white"/>
</clipPath>
</defs>
</svg>
