<svg width="130" height="48" viewBox="0 0 130 48" fill="none" xmlns="http://www.w3.org/2000/svg">
<g clip-path="url(#clip0_78_10)">
<path d="M69.2678 31.5663L66.164 27.163H62.7383V31.5663H59.0137V15.7594H65.9801C67.4055 15.7594 68.6394 15.9927 69.6817 16.4594C70.7393 16.9261 71.5516 17.5885 72.1188 18.4466C72.6859 19.3046 72.9695 20.3208 72.9695 21.495C72.9695 22.6693 72.6782 23.6854 72.0958 24.5435C71.5287 25.3866 70.7163 26.0339 69.6587 26.4855L73.2683 31.5663H69.2678ZM69.1989 21.495C69.1989 20.6068 68.9076 19.9294 68.3252 19.4627C67.7427 18.981 66.8921 18.7401 65.7731 18.7401H62.7383V24.25H65.7731C66.8921 24.25 67.7427 24.0091 68.3252 23.5274C68.9076 23.0456 69.1989 22.3682 69.1989 21.495Z" fill="white"/>
<path d="M84.8641 31.8373C83.1934 31.8373 81.6836 31.4835 80.3348 30.776C79.0013 30.0684 77.9513 29.0974 77.185 27.863C76.4339 26.6135 76.0584 25.2134 76.0584 23.6628C76.0584 22.1123 76.4339 20.7197 77.185 19.4853C77.9513 18.2358 79.0013 17.2573 80.3348 16.5497C81.6836 15.8422 83.1934 15.4884 84.8641 15.4884C86.5348 15.4884 88.0369 15.8422 89.3704 16.5497C90.7039 17.2573 91.7538 18.2358 92.5202 19.4853C93.2866 20.7197 93.6698 22.1123 93.6698 23.6628C93.6698 25.2134 93.2866 26.6135 92.5202 27.863C91.7538 29.0974 90.7039 30.0684 89.3704 30.776C88.0369 31.4835 86.5348 31.8373 84.8641 31.8373ZM84.8641 28.7211C85.8144 28.7211 86.6727 28.5103 87.4391 28.0888C88.2055 27.6522 88.8033 27.05 89.2324 26.2823C89.6769 25.5145 89.8992 24.6414 89.8992 23.6628C89.8992 22.6843 89.6769 21.8112 89.2324 21.0434C88.8033 20.2756 88.2055 19.681 87.4391 19.2595C86.6727 18.8229 85.8144 18.6046 84.8641 18.6046C83.9138 18.6046 83.0554 18.8229 82.289 19.2595C81.5227 19.681 80.9172 20.2756 80.4727 21.0434C80.0436 21.8112 79.829 22.6843 79.829 23.6628C79.829 24.6414 80.0436 25.5145 80.4727 26.2823C80.9172 27.05 81.5227 27.6522 82.289 28.0888C83.0554 28.5103 83.9138 28.7211 84.8641 28.7211Z" fill="white"/>
<path d="M97.6186 15.7594H101.343V28.5856H109.413V31.5663H97.6186V15.7594Z" fill="white"/>
<path d="M123.378 28.1791H115.905L114.48 31.5663H110.663L117.837 15.7594H121.515L128.712 31.5663H124.803L123.378 28.1791ZM122.205 25.4016L119.653 19.3498L117.101 25.4016H122.205Z" fill="white"/>
<path d="M32.1549 2.84436C30.3853 13.7605 20.8881 22.0999 9.43604 22.0999C6.5764 22.0999 3.84048 21.5803 1.31675 20.6315C1.10639 20.5524 0.982178 20.3382 1.0182 20.116C2.7878 9.19985 12.285 0.860468 23.737 0.860468C26.5967 0.860468 29.3326 1.38005 31.8563 2.32891C32.0667 2.408 32.1909 2.62215 32.1549 2.84436Z" stroke="white" stroke-width="1.72094"/>
<path d="M32.1549 2.84436C30.3853 13.7605 20.8881 22.0999 9.43604 22.0999C6.5764 22.0999 3.84048 21.5803 1.31675 20.6315C1.10639 20.5524 0.982178 20.3382 1.0182 20.116C2.7878 9.19985 12.285 0.860468 23.737 0.860468C26.5967 0.860468 29.3326 1.38005 31.8563 2.32891C32.0667 2.408 32.1909 2.62215 32.1549 2.84436Z" stroke="#7B61FF" stroke-width="1.72094"/>
<path d="M32.1549 2.84436C30.3853 13.7605 20.8881 22.0999 9.43604 22.0999C6.5764 22.0999 3.84048 21.5803 1.31675 20.6315C1.10639 20.5524 0.982178 20.3382 1.0182 20.116C2.7878 9.19985 12.285 0.860468 23.737 0.860468C26.5967 0.860468 29.3326 1.38005 31.8563 2.32891C32.0667 2.408 32.1909 2.62215 32.1549 2.84436Z" stroke="url(#paint0_linear_78_10)" stroke-width="1.72094"/>
<path d="M31.8872 45.2721C29.355 46.2283 26.6085 46.7521 23.7373 46.7521C12.2167 46.7521 2.67462 38.3126 0.987591 27.3004C0.953737 27.0795 1.07775 26.8675 1.28642 26.7887C3.81865 25.8325 6.56513 25.3087 9.43635 25.3087C20.9569 25.3087 30.4991 33.7481 32.1861 44.7603C32.2199 44.9813 32.0959 45.1933 31.8872 45.2721Z" stroke="#00E3EF" stroke-opacity="0.8" stroke-width="1.72094"/>
<path d="M31.8872 45.2721C29.355 46.2283 26.6085 46.7521 23.7373 46.7521C12.2167 46.7521 2.67462 38.3126 0.987591 27.3004C0.953737 27.0795 1.07775 26.8675 1.28642 26.7887C3.81865 25.8325 6.56513 25.3087 9.43635 25.3087C20.9569 25.3087 30.4991 33.7481 32.1861 44.7603C32.2199 44.9813 32.0959 45.1933 31.8872 45.2721Z" stroke="url(#paint1_linear_78_10)" stroke-opacity="0.9" stroke-width="1.72094"/>
<path d="M38.0809 5.86075C43.3676 10.0669 46.752 16.5426 46.752 23.8063C46.752 31.0104 43.423 37.4393 38.2107 41.6478C38.038 41.7872 37.7942 41.7881 37.6205 41.6499C32.3337 37.4438 28.9493 30.9681 28.9493 23.7043C28.9493 16.5002 32.2783 10.0713 37.4906 5.86287C37.6633 5.72341 37.9071 5.72254 38.0809 5.86075Z" stroke="#0088EF" stroke-opacity="0.8" stroke-width="1.72094"/>
<path d="M38.0809 5.86075C43.3676 10.0669 46.752 16.5426 46.752 23.8063C46.752 31.0104 43.423 37.4393 38.2107 41.6478C38.038 41.7872 37.7942 41.7881 37.6205 41.6499C32.3337 37.4438 28.9493 30.9681 28.9493 23.7043C28.9493 16.5002 32.2783 10.0713 37.4906 5.86287C37.6633 5.72341 37.9071 5.72254 38.0809 5.86075Z" stroke="url(#paint2_linear_78_10)" stroke-width="1.72094"/>
</g>
<defs>
<linearGradient id="paint0_linear_78_10" x1="35.0423" y1="4.50455" x2="16.5865" y2="22.9604" gradientUnits="userSpaceOnUse">
<stop stop-color="#FF2B51"/>
<stop offset="1" stop-color="#FF2B51" stop-opacity="0"/>
</linearGradient>
<linearGradient id="paint1_linear_78_10" x1="59.2703" y1="52.477" x2="20.8272" y2="88.7287" gradientUnits="userSpaceOnUse">
<stop stop-color="#7B61FF" stop-opacity="0.8"/>
<stop offset="0.40574" stop-color="#0088EF" stop-opacity="0.8"/>
<stop offset="1" stop-color="#00E3EF" stop-opacity="0.3"/>
</linearGradient>
<linearGradient id="paint2_linear_78_10" x1="37.8507" y1="4.552" x2="37.8507" y2="30.125" gradientUnits="userSpaceOnUse">
<stop stop-color="#FF5E00"/>
<stop offset="1" stop-color="#FF5E00" stop-opacity="0"/>
</linearGradient>
<clipPath id="clip0_78_10">
<rect width="129.07" height="47.6125" fill="white"/>
</clipPath>
</defs>
</svg>
