<svg width="32" height="33" viewBox="0 0 32 33" fill="none" xmlns="http://www.w3.org/2000/svg">
<g opacity="0.3">
<path d="M23.629 18.3518C18.4269 18.3518 14.2098 14.1347 14.2098 8.93256C14.2098 7.33192 14.61 5.82361 15.3179 4.5H9.22316C5.59092 4.53078 2.66666 7.45504 2.66666 11.0565V23.2768C2.66666 26.8783 5.59092 29.8333 9.22316 29.8333H21.4435C25.0449 29.8333 28 26.9091 28 23.2768V17.3052C26.6764 17.9824 25.1989 18.3518 23.629 18.3518Z" fill="white"/>
<path d="M23.629 18.3518C18.4269 18.3518 14.2098 14.1347 14.2098 8.93256C14.2098 7.33192 14.61 5.82361 15.3179 4.5H9.22316C5.59092 4.53078 2.66666 7.45504 2.66666 11.0565V23.2768C2.66666 26.8783 5.59092 29.8333 9.22316 29.8333H21.4435C25.0449 29.8333 28 26.9091 28 23.2768V17.3052C26.6764 17.9824 25.1989 18.3518 23.629 18.3518Z" fill="#162534" fill-opacity="0.1"/>
</g>
<path d="M23.3333 13.8333C25.9107 13.8333 28 11.744 28 9.16667C28 6.58934 25.9107 4.5 23.3333 4.5C20.756 4.5 18.6667 6.58934 18.6667 9.16667C18.6667 11.744 20.756 13.8333 23.3333 13.8333Z" fill="white"/>
<path d="M23.3333 13.8333C25.9107 13.8333 28 11.744 28 9.16667C28 6.58934 25.9107 4.5 23.3333 4.5C20.756 4.5 18.6667 6.58934 18.6667 9.16667C18.6667 11.744 20.756 13.8333 23.3333 13.8333Z" fill="#162534" fill-opacity="0.1"/>
</svg>
