<svg width="254" height="254" viewBox="0 0 254 254" fill="none" xmlns="http://www.w3.org/2000/svg">
<circle cx="127" cy="127" r="87.5" stroke="#00E3EF"/>
<circle cx="127" cy="127" r="87.5" stroke="url(#paint0_linear_846_15793)"/>
<g opacity="0.5">
<circle cx="127" cy="127" r="107.5" stroke="#00D4E3"/>
<circle cx="127" cy="127" r="107.5" stroke="url(#paint1_linear_846_15793)"/>
</g>
<g opacity="0.2">
<circle cx="127" cy="127" r="126.5" stroke="#E6F3FD"/>
<circle cx="127" cy="127" r="126.5" stroke="url(#paint2_linear_846_15793)"/>
</g>
<g clip-path="url(#clip0_846_15793)">
<rect x="153.385" y="109.538" width="34.4615" height="34.4615" rx="17.2308" fill="#162534"/>
<path d="M184.975 122.806L174.651 121.916L170.616 112.41L166.581 121.93L156.257 122.806L164.097 129.598L161.742 139.692L170.616 134.336L179.49 139.692L177.149 129.598L184.975 122.806ZM170.616 131.651L165.217 134.911L166.653 128.765L161.886 124.63L168.175 124.084L170.616 118.297L173.071 124.098L179.36 124.644L174.593 128.779L176.029 134.925L170.616 131.651Z" fill="#FF2B51"/>
</g>
<g clip-path="url(#clip1_846_15793)">
<rect x="109.769" y="109" width="34.4615" height="34.4615" rx="17.2308" fill="#162534"/>
<path d="M126.986 111.872C119.06 111.872 112.641 118.305 112.641 126.231C112.641 134.157 119.06 140.59 126.986 140.59C134.926 140.59 141.359 134.157 141.359 126.231C141.359 118.305 134.926 111.872 126.986 111.872ZM137.726 122.153L130.532 121.535L127.661 114.772C132.27 115.045 136.147 118.032 137.726 122.153ZM130.446 131.142L127 129.074L123.568 131.142L124.473 127.236L121.443 124.608L125.435 124.264L127 120.573L128.565 124.249L132.557 124.594L129.527 127.222L130.446 131.142ZM126.34 114.772L123.468 121.55L116.26 122.167C117.839 118.032 121.716 115.031 126.34 114.772ZM115.513 126.231C115.513 125.312 115.628 124.422 115.843 123.56L121.285 128.27L119.691 135.09C117.135 132.979 115.513 129.792 115.513 126.231ZM121.027 136.024L127 132.419L132.973 136.009C131.222 137.086 129.183 137.718 126.986 137.718C124.803 137.718 122.764 137.086 121.027 136.024ZM134.309 135.09L132.715 128.27L138.157 123.56C138.358 124.407 138.487 125.312 138.487 126.231C138.487 129.792 136.85 132.979 134.309 135.09Z" fill="#00E3EF"/>
</g>
<g clip-path="url(#clip2_846_15793)">
<rect x="66.1538" y="109.538" width="34.4615" height="34.4615" rx="17.2308" fill="#162534"/>
<path d="M96.3078 121.026H87.2473L88.6114 114.464L88.6545 114.004C88.6545 113.415 88.4104 112.87 88.0227 112.482L86.5006 110.974L77.0524 120.437C76.5211 120.954 76.2052 121.672 76.2052 122.462V136.821C76.2052 138.4 77.4975 139.692 79.077 139.692H92.0001C93.1919 139.692 94.2114 138.974 94.6422 137.941L98.9786 127.817C99.1078 127.487 99.1796 127.143 99.1796 126.769V123.897C99.1796 122.318 97.8873 121.026 96.3078 121.026ZM96.3078 126.769L92.0001 136.821H79.077V122.462L85.3088 116.23L83.715 123.897H96.3078V126.769ZM67.5898 122.462H73.3334V139.692H67.5898V122.462Z" fill="white"/>
<path d="M96.3078 121.026H87.2473L88.6114 114.464L88.6545 114.004C88.6545 113.415 88.4104 112.87 88.0227 112.482L86.5006 110.974L77.0524 120.437C76.5211 120.954 76.2052 121.672 76.2052 122.462V136.821C76.2052 138.4 77.4975 139.692 79.077 139.692H92.0001C93.1919 139.692 94.2114 138.974 94.6422 137.941L98.9786 127.817C99.1078 127.487 99.1796 127.143 99.1796 126.769V123.897C99.1796 122.318 97.8873 121.026 96.3078 121.026ZM96.3078 126.769L92.0001 136.821H79.077V122.462L85.3088 116.23L83.715 123.897H96.3078V126.769ZM67.5898 122.462H73.3334V139.692H67.5898V122.462Z" fill="#7B61FF"/>
</g>
<defs>
<linearGradient id="paint0_linear_846_15793" x1="215" y1="127" x2="127" y2="215" gradientUnits="userSpaceOnUse">
<stop stop-color="#0088EF"/>
<stop offset="1" stop-color="#0088EF" stop-opacity="0"/>
</linearGradient>
<linearGradient id="paint1_linear_846_15793" x1="235" y1="127" x2="127" y2="235" gradientUnits="userSpaceOnUse">
<stop stop-color="#00F2FF"/>
<stop offset="1" stop-color="#00E3EF" stop-opacity="0"/>
</linearGradient>
<linearGradient id="paint2_linear_846_15793" x1="254" y1="127" x2="127" y2="254" gradientUnits="userSpaceOnUse">
<stop stop-color="#0088EF"/>
<stop offset="1" stop-color="#0088EF" stop-opacity="0"/>
</linearGradient>
<clipPath id="clip0_846_15793">
<rect x="153.385" y="109.538" width="34.4615" height="34.4615" rx="17.2308" fill="white"/>
</clipPath>
<clipPath id="clip1_846_15793">
<rect x="109.769" y="109" width="34.4615" height="34.4615" rx="17.2308" fill="white"/>
</clipPath>
<clipPath id="clip2_846_15793">
<rect x="66.1538" y="109.538" width="34.4615" height="34.4615" rx="17.2308" fill="white"/>
</clipPath>
</defs>
</svg>
