<svg width="32" height="33" viewBox="0 0 32 33" fill="none" xmlns="http://www.w3.org/2000/svg">
<g clip-path="url(#clip0_700_40489)">
<path d="M22.2811 1.79199C21.3566 9.75203 14.5731 15.9315 6.34209 15.9315C4.09516 15.9315 1.9561 15.471 0.0146408 14.6395C0.939111 6.67945 7.72265 0.5 15.9537 0.5C18.2006 0.5 20.3397 0.960493 22.2811 1.79199Z" fill="#F2F3F3"/>
<path d="M22.2958 31.2018C20.3504 32.0372 18.2062 32.5001 15.9537 32.5001C7.67763 32.5001 0.864947 26.2528 0 18.2298C1.94534 17.3943 4.08951 16.9315 6.34209 16.9315C14.6181 16.9315 21.4308 23.1788 22.2958 31.2018Z" fill="#F2F3F3"/>
<path d="M25.3924 3.55933C29.3972 6.46854 32 11.1812 32 16.5C32 21.7772 29.4377 26.4577 25.486 29.3721C21.4811 26.4629 18.8783 21.7503 18.8783 16.4315C18.8783 11.1542 21.4406 6.4737 25.3924 3.55933Z" fill="#F2F3F3"/>
</g>
<defs>
<clipPath id="clip0_700_40489">
<rect width="32" height="32" fill="white" transform="translate(0 0.5)"/>
</clipPath>
</defs>
</svg>
