<svg width="24" height="25" viewBox="0 0 24 25" fill="none" xmlns="http://www.w3.org/2000/svg">
<path d="M20.6847 19.7027L17.2747 16.3182C19.9373 12.9103 19.657 8.05528 16.5974 4.99754C14.9859 3.38698 12.8371 2.5 10.5482 2.5C8.25937 2.5 6.11063 3.38698 4.49908 4.99754C2.88752 6.60811 2 8.75553 2 11.043C2 13.3305 2.88752 15.4779 4.49908 17.0885C6.11063 18.699 8.25937 19.586 10.5482 19.586C12.4401 19.586 14.3085 18.9558 15.8033 17.7654L19.1899 21.1966C19.4001 21.4066 19.657 21.5 19.9373 21.5C20.2176 21.5 20.4745 21.3833 20.6847 21.1966C21.1051 20.7998 21.1051 20.1229 20.6847 19.7027ZM16.9945 11.043C16.9945 12.7703 16.3171 14.3808 15.1026 15.5946C13.8881 16.8084 12.2532 17.4853 10.5482 17.4853C8.84327 17.4853 7.20836 16.8084 5.99385 15.5946C4.77935 14.3808 4.10203 12.7469 4.10203 11.043C4.10203 9.31573 4.77935 7.70516 5.99385 6.4914C7.20836 5.27764 8.84327 4.60074 10.5482 4.60074C12.2766 4.60074 13.8881 5.27764 15.1026 6.4914C16.3171 7.70516 16.9945 9.31573 16.9945 11.043Z" fill="white"/>
<path d="M20.6847 19.7027L17.2747 16.3182C19.9373 12.9103 19.657 8.05528 16.5974 4.99754C14.9859 3.38698 12.8371 2.5 10.5482 2.5C8.25937 2.5 6.11063 3.38698 4.49908 4.99754C2.88752 6.60811 2 8.75553 2 11.043C2 13.3305 2.88752 15.4779 4.49908 17.0885C6.11063 18.699 8.25937 19.586 10.5482 19.586C12.4401 19.586 14.3085 18.9558 15.8033 17.7654L19.1899 21.1966C19.4001 21.4066 19.657 21.5 19.9373 21.5C20.2176 21.5 20.4745 21.3833 20.6847 21.1966C21.1051 20.7998 21.1051 20.1229 20.6847 19.7027ZM16.9945 11.043C16.9945 12.7703 16.3171 14.3808 15.1026 15.5946C13.8881 16.8084 12.2532 17.4853 10.5482 17.4853C8.84327 17.4853 7.20836 16.8084 5.99385 15.5946C4.77935 14.3808 4.10203 12.7469 4.10203 11.043C4.10203 9.31573 4.77935 7.70516 5.99385 6.4914C7.20836 5.27764 8.84327 4.60074 10.5482 4.60074C12.2766 4.60074 13.8881 5.27764 15.1026 6.4914C16.3171 7.70516 16.9945 9.31573 16.9945 11.043Z" fill="#162534" fill-opacity="0.8"/>
</svg>
